<svg version="1.1" viewBox="0.0 0.0 600.0 371.0" fill="none" stroke="none" stroke-linecap="square" stroke-miterlimit="10" width="600" height="371" xmlns:xlink="http://www.w3.org/1999/xlink" xmlns="http://www.w3.org/2000/svg"><path fill="#ffffff" d="M0 0L600.0 0L600.0 371.0L0 371.0L0 0Z" fill-rule="nonzero"/><path stroke="#cccccc" stroke-width="1.0" stroke-linecap="butt" d="M54.5 332.5L581.5 332.5" fill-rule="nonzero"/><path stroke="#cccccc" stroke-width="1.0" stroke-linecap="butt" d="M54.5 238.5L581.5 238.5" fill-rule="nonzero"/><path stroke="#cccccc" stroke-width="1.0" stroke-linecap="butt" d="M54.5 145.5L581.5 145.5" fill-rule="nonzero"/><path stroke="#cccccc" stroke-width="1.0" stroke-linecap="butt" d="M54.5 51.5L581.5 51.5" fill-rule="nonzero"/><path stroke="#e6e6e6" stroke-width="1.0" stroke-linecap="butt" d="M54.5 301.5L581.5 301.5" fill-rule="nonzero"/><path stroke="#e6e6e6" stroke-width="1.0" stroke-linecap="butt" d="M54.5 270.5L581.5 270.5" fill-rule="nonzero"/><path stroke="#e6e6e6" stroke-width="1.0" stroke-linecap="butt" d="M54.5 207.5L581.5 207.5" fill-rule="nonzero"/><path stroke="#e6e6e6" stroke-width="1.0" stroke-linecap="butt" d="M54.5 176.5L581.5 176.5" fill-rule="nonzero"/><path stroke="#e6e6e6" stroke-width="1.0" stroke-linecap="butt" d="M54.5 114.5L581.5 114.5" fill-rule="nonzero"/><path stroke="#e6e6e6" stroke-width="1.0" stroke-linecap="butt" d="M54.5 83.5L581.5 83.5" fill-rule="nonzero"/><path stroke="#000000" stroke-width="1.0" stroke-linecap="butt" d="M54.5 332.5L54.5 51.5" fill-rule="nonzero"/><clipPath id="id_0"><path d="M54.55 51.916668L581.45 51.916668L581.45 332.45L54.55 332.45L54.55 51.916668Z" clip-rule="nonzero"/></clipPath><path stroke="#4285f4" stroke-width="2.0" stroke-linecap="butt" clip-path="url(#id_0)" d="M107.24 141.62555L212.62 138.23462L318.0 138.91766L423.38 217.25833L528.76 177.74648" fill-rule="nonzero"/><path stroke="#ea4335" stroke-width="2.0" stroke-linecap="butt" clip-path="url(#id_0)" d="M107.24 159.8141L212.62 93.87678L318.0 108.92999L423.38 285.14694L528.76 189.51187" fill-rule="nonzero"/><path stroke="#fbbc04" stroke-width="2.0" stroke-linecap="butt" clip-path="url(#id_0)" d="M107.24 150.4335L212.62 104.06709L318.0 114.24961L423.38 254.48758L528.76 179.27733" fill-rule="nonzero"/><path stroke="#34a853" stroke-width="2.0" stroke-linecap="butt" clip-path="url(#id_0)" d="M107.24 159.86156L212.62 170.00441L318.0 168.02188L423.38 243.5378L528.76 206.7711" fill-rule="nonzero"/><path stroke="#ff6d01" stroke-width="2.0" stroke-linecap="butt" clip-path="url(#id_0)" d="M107.24 153.00977L212.62 102.26881L318.0 113.51081L423.38 262.1524L528.76 182.21062" fill-rule="nonzero"/><path fill="#000000" fill-opacity="0.0" clip-path="url(#id_0)" d="M110.24 141.62555C110.24 143.2824 108.89685 144.62555 107.24 144.62555C105.583145 144.62555 104.24 143.2824 104.24 141.62555C104.24 139.96869 105.583145 138.62555 107.24 138.62555C108.89685 138.62555 110.24 139.96869 110.24 141.62555Z" fill-rule="nonzero"/><path fill="#000000" fill-opacity="0.0" clip-path="url(#id_0)" d="M215.62 138.23462C215.62 139.89146 214.27686 141.23462 212.62 141.23462C210.96315 141.23462 209.62 139.89146 209.62 138.23462C209.62 136.57776 210.96315 135.23462 212.62 135.23462C214.27686 135.23462 215.62 136.57776 215.62 138.23462Z" fill-rule="nonzero"/><path fill="#000000" fill-opacity="0.0" clip-path="url(#id_0)" d="M321.0 138.91766C321.0 140.57451 319.65686 141.91766 318.0 141.91766C316.34314 141.91766 315.0 140.57451 315.0 138.91766C315.0 137.2608 316.34314 135.91766 318.0 135.91766C319.65686 135.91766 321.0 137.2608 321.0 138.91766Z" fill-rule="nonzero"/><path fill="#000000" fill-opacity="0.0" clip-path="url(#id_0)" d="M426.38 217.25833C426.38 218.91518 425.03687 220.25833 423.38 220.25833C421.72314 220.25833 420.38 218.91518 420.38 217.25833C420.38 215.60147 421.72314 214.25833 423.38 214.25833C425.03687 214.25833 426.38 215.60147 426.38 217.25833Z" fill-rule="nonzero"/><path fill="#000000" fill-opacity="0.0" clip-path="url(#id_0)" d="M531.76 177.74648C531.76 179.40332 530.4169 180.74648 528.76 180.74648C527.10315 180.74648 525.76 179.40332 525.76 177.74648C525.76 176.08961 527.10315 174.74648 528.76 174.74648C530.4169 174.74648 531.76 176.08961 531.76 177.74648Z" fill-rule="nonzero"/><path fill="#000000" fill-opacity="0.0" clip-path="url(#id_0)" d="M110.24 159.8141C110.24 161.47096 108.89685 162.8141 107.24 162.8141C105.583145 162.8141 104.24 161.47096 104.24 159.8141C104.24 158.15724 105.583145 156.8141 107.24 156.8141C108.89685 156.8141 110.24 158.15724 110.24 159.8141Z" fill-rule="nonzero"/><path fill="#000000" fill-opacity="0.0" clip-path="url(#id_0)" d="M215.62 93.87678C215.62 95.53364 214.27686 96.87678 212.62 96.87678C210.96315 96.87678 209.62 95.53364 209.62 93.87678C209.62 92.219925 210.96315 90.87678 212.62 90.87678C214.27686 90.87678 215.62 92.219925 215.62 93.87678Z" fill-rule="nonzero"/><path fill="#000000" fill-opacity="0.0" clip-path="url(#id_0)" d="M321.0 108.92999C321.0 110.58685 319.65686 111.92999 318.0 111.92999C316.34314 111.92999 315.0 110.58685 315.0 108.92999C315.0 107.27314 316.34314 105.92999 318.0 105.92999C319.65686 105.92999 321.0 107.27314 321.0 108.92999Z" fill-rule="nonzero"/><path fill="#000000" fill-opacity="0.0" clip-path="url(#id_0)" d="M426.38 285.14694C426.38 286.8038 425.03687 288.14694 423.38 288.14694C421.72314 288.14694 420.38 286.8038 420.38 285.14694C420.38 283.4901 421.72314 282.14694 423.38 282.14694C425.03687 282.14694 426.38 283.4901 426.38 285.14694Z" fill-rule="nonzero"/><path fill="#000000" fill-opacity="0.0" clip-path="url(#id_0)" d="M531.76 189.51187C531.76 191.16872 530.4169 192.51187 528.76 192.51187C527.10315 192.51187 525.76 191.16872 525.76 189.51187C525.76 187.85501 527.10315 186.51187 528.76 186.51187C530.4169 186.51187 531.76 187.85501 531.76 189.51187Z" fill-rule="nonzero"/><path fill="#000000" fill-opacity="0.0" clip-path="url(#id_0)" d="M110.24 150.4335C110.24 152.09035 108.89685 153.4335 107.24 153.4335C105.583145 153.4335 104.24 152.09035 104.24 150.4335C104.24 148.77664 105.583145 147.4335 107.24 147.4335C108.89685 147.4335 110.24 148.77664 110.24 150.4335Z" fill-rule="nonzero"/><path fill="#000000" fill-opacity="0.0" clip-path="url(#id_0)" d="M215.62 104.06709C215.62 105.723946 214.27686 107.06709 212.62 107.06709C210.96315 107.06709 209.62 105.723946 209.62 104.06709C209.62 102.41024 210.96315 101.06709 212.62 101.06709C214.27686 101.06709 215.62 102.41024 215.62 104.06709Z" fill-rule="nonzero"/><path fill="#000000" fill-opacity="0.0" clip-path="url(#id_0)" d="M321.0 114.24961C321.0 115.90646 319.65686 117.24961 318.0 117.24961C316.34314 117.24961 315.0 115.90646 315.0 114.24961C315.0 112.59276 316.34314 111.24961 318.0 111.24961C319.65686 111.24961 321.0 112.59276 321.0 114.24961Z" fill-rule="nonzero"/><path fill="#000000" fill-opacity="0.0" clip-path="url(#id_0)" d="M426.38 254.48758C426.38 256.14444 425.03687 257.48758 423.38 257.48758C421.72314 257.48758 420.38 256.14444 420.38 254.48758C420.38 252.83072 421.72314 251.48758 423.38 251.48758C425.03687 251.48758 426.38 252.83072 426.38 254.48758Z" fill-rule="nonzero"/><path fill="#000000" fill-opacity="0.0" clip-path="url(#id_0)" d="M531.76 179.27733C531.76 180.93419 530.4169 182.27733 528.76 182.27733C527.10315 182.27733 525.76 180.93419 525.76 179.27733C525.76 177.62048 527.10315 176.27733 528.76 176.27733C530.4169 176.27733 531.76 177.62048 531.76 179.27733Z" fill-rule="nonzero"/><path fill="#000000" fill-opacity="0.0" clip-path="url(#id_0)" d="M110.24 159.86156C110.24 161.5184 108.89685 162.86156 107.24 162.86156C105.583145 162.86156 104.24 161.5184 104.24 159.86156C104.24 158.2047 105.583145 156.86156 107.24 156.86156C108.89685 156.86156 110.24 158.2047 110.24 159.86156Z" fill-rule="nonzero"/><path fill="#000000" fill-opacity="0.0" clip-path="url(#id_0)" d="M215.62 170.00441C215.62 171.66127 214.27686 173.00441 212.62 173.00441C210.96315 173.00441 209.62 171.66127 209.62 170.00441C209.62 168.34756 210.96315 167.00441 212.62 167.00441C214.27686 167.00441 215.62 168.34756 215.62 170.00441Z" fill-rule="nonzero"/><path fill="#000000" fill-opacity="0.0" clip-path="url(#id_0)" d="M321.0 168.02188C321.0 169.67873 319.65686 171.02188 318.0 171.02188C316.34314 171.02188 315.0 169.67873 315.0 168.02188C315.0 166.36502 316.34314 165.02188 318.0 165.02188C319.65686 165.02188 321.0 166.36502 321.0 168.02188Z" fill-rule="nonzero"/><path fill="#000000" fill-opacity="0.0" clip-path="url(#id_0)" d="M426.38 243.5378C426.38 245.19466 425.03687 246.5378 423.38 246.5378C421.72314 246.5378 420.38 245.19466 420.38 243.5378C420.38 241.88094 421.72314 240.5378 423.38 240.5378C425.03687 240.5378 426.38 241.88094 426.38 243.5378Z" fill-rule="nonzero"/><path fill="#000000" fill-opacity="0.0" clip-path="url(#id_0)" d="M531.76 206.7711C531.76 208.42796 530.4169 209.7711 528.76 209.7711C527.10315 209.7711 525.76 208.42796 525.76 206.7711C525.76 205.11426 527.10315 203.7711 528.76 203.7711C530.4169 203.7711 531.76 205.11426 531.76 206.7711Z" fill-rule="nonzero"/><path fill="#000000" fill-opacity="0.0" clip-path="url(#id_0)" d="M110.24 153.00977C110.24 154.66661 108.89685 156.00977 107.24 156.00977C105.583145 156.00977 104.24 154.66661 104.24 153.00977C104.24 151.3529 105.583145 150.00977 107.24 150.00977C108.89685 150.00977 110.24 151.3529 110.24 153.00977Z" fill-rule="nonzero"/><path fill="#000000" fill-opacity="0.0" clip-path="url(#id_0)" d="M215.62 102.26881C215.62 103.92566 214.27686 105.26881 212.62 105.26881C210.96315 105.26881 209.62 103.92566 209.62 102.26881C209.62 100.611946 210.96315 99.26881 212.62 99.26881C214.27686 99.26881 215.62 100.611946 215.62 102.26881Z" fill-rule="nonzero"/><path fill="#000000" fill-opacity="0.0" clip-path="url(#id_0)" d="M321.0 113.51081C321.0 115.16766 319.65686 116.51081 318.0 116.51081C316.34314 116.51081 315.0 115.16766 315.0 113.51081C315.0 111.85396 316.34314 110.51081 318.0 110.51081C319.65686 110.51081 321.0 111.85396 321.0 113.51081Z" fill-rule="nonzero"/><path fill="#000000" fill-opacity="0.0" clip-path="url(#id_0)" d="M426.38 262.1524C426.38 263.80927 425.03687 265.1524 423.38 265.1524C421.72314 265.1524 420.38 263.80927 420.38 262.1524C420.38 260.49557 421.72314 259.1524 423.38 259.1524C425.03687 259.1524 426.38 260.49557 426.38 262.1524Z" fill-rule="nonzero"/><path fill="#000000" fill-opacity="0.0" clip-path="url(#id_0)" d="M531.76 182.21062C531.76 183.86746 530.4169 185.21062 528.76 185.21062C527.10315 185.21062 525.76 183.86746 525.76 182.21062C525.76 180.55376 527.10315 179.21062 528.76 179.21062C530.4169 179.21062 531.76 180.55376 531.76 182.21062Z" fill-rule="nonzero"/><path stroke="#000000" stroke-width="1.0" stroke-linecap="butt" d="M48.5 332.5L60.5 332.5" fill-rule="nonzero"/><path stroke="#000000" stroke-width="1.0" stroke-linecap="butt" d="M48.5 238.5L60.5 238.5" fill-rule="nonzero"/><path stroke="#000000" stroke-width="1.0" stroke-linecap="butt" d="M48.5 145.5L60.5 145.5" fill-rule="nonzero"/><path stroke="#000000" stroke-width="1.0" stroke-linecap="butt" d="M48.5 51.5L60.5 51.5" fill-rule="nonzero"/><path fill="#000000" d="M19.05 332.21564Q19.05 330.6844 19.3625 329.7625Q19.675 328.825 20.284374 328.325Q20.909374 327.825 21.846874 327.825Q22.534374 327.825 23.05 328.10626Q23.58125 328.3875 23.925 328.91876Q24.26875 329.4344 24.45625 330.1844Q24.64375 330.9344 24.64375 332.21564Q24.64375 333.73126 24.33125 334.65314Q24.034374 335.575 23.409374 336.09064Q22.8 336.59064 21.846874 336.59064Q20.6125 336.59064 19.89375 335.7Q19.05 334.6375 19.05 332.21564ZM20.128124 332.21564Q20.128124 334.325 20.628124 335.02814Q21.128124 335.73126 21.846874 335.73126Q22.58125 335.73126 23.065624 335.02814Q23.565624 334.325 23.565624 332.21564Q23.565624 330.09064 23.065624 329.40314Q22.58125 328.7 21.83125 328.7Q21.1125 328.7 20.675 329.3094Q20.128124 330.09064 20.128124 332.21564ZM26.64375 336.45L26.64375 335.2469L27.846874 335.2469L27.846874 336.45L26.64375 336.45ZM32.425 336.45L32.425 334.3875L28.70625 334.3875L28.70625 333.41876L32.628124 327.85626L33.4875 327.85626L33.4875 333.41876L34.64375 333.41876L34.64375 334.3875L33.4875 334.3875L33.4875 336.45L32.425 336.45ZM32.425 333.41876L32.425 329.5594L29.7375 333.41876L32.425 333.41876ZM36.05 332.21564Q36.05 330.6844 36.3625 329.7625Q36.675 328.825 37.284374 328.325Q37.909374 327.825 38.846874 327.825Q39.534374 327.825 40.05 328.10626Q40.58125 328.3875 40.925 328.91876Q41.26875 329.4344 41.45625 330.1844Q41.64375 330.9344 41.64375 332.21564Q41.64375 333.73126 41.33125 334.65314Q41.034374 335.575 40.409374 336.09064Q39.8 336.59064 38.846874 336.59064Q37.6125 336.59064 36.89375 335.7Q36.05 334.6375 36.05 332.21564ZM37.128124 332.21564Q37.128124 334.325 37.628124 335.02814Q38.128124 335.73126 38.846874 335.73126Q39.58125 335.73126 40.065624 335.02814Q40.565624 334.325 40.565624 332.21564Q40.565624 330.09064 40.065624 329.40314Q39.58125 328.7 38.83125 328.7Q38.1125 328.7 37.675 329.3094Q37.128124 330.09064 37.128124 332.21564Z" fill-rule="nonzero"/><path fill="#000000" d="M19.05 238.70451Q19.05 237.17326 19.3625 236.25139Q19.675 235.31389 20.284374 234.81389Q20.909374 234.31389 21.846874 234.31389Q22.534374 234.31389 23.05 234.59514Q23.58125 234.87639 23.925 235.40764Q24.26875 235.92326 24.45625 236.67326Q24.64375 237.42326 24.64375 238.70451Q24.64375 240.22014 24.33125 241.14201Q24.034374 242.06389 23.409374 242.57951Q22.8 243.07951 21.846874 243.07951Q20.6125 243.07951 19.89375 242.18889Q19.05 241.12639 19.05 238.70451ZM20.128124 238.70451Q20.128124 240.81389 20.628124 241.51701Q21.128124 242.22014 21.846874 242.22014Q22.58125 242.22014 23.065624 241.51701Q23.565624 240.81389 23.565624 238.70451Q23.565624 236.57951 23.065624 235.89201Q22.58125 235.18889 21.83125 235.18889Q21.1125 235.18889 20.675 235.79826Q20.128124 236.57951 20.128124 238.70451ZM26.64375 242.93889L26.64375 241.73576L27.846874 241.73576L27.846874 242.93889L26.64375 242.93889ZM34.51875 236.45451L33.471874 236.53264Q33.33125 235.90764 33.08125 235.62639Q32.64375 235.17326 32.01875 235.17326Q31.51875 235.17326 31.128124 235.45451Q30.64375 235.82951 30.346874 236.53264Q30.065624 237.22014 30.05 238.50139Q30.425 237.92326 30.971874 237.64201Q31.534374 237.36076 32.14375 237.36076Q33.190624 237.36076 33.925 238.14201Q34.675 238.92326 34.675 240.14201Q34.675 240.95451 34.315624 241.65764Q33.971874 242.34514 33.3625 242.72014Q32.753124 243.07951 31.9875 243.07951Q30.659374 243.07951 29.83125 242.11076Q29.003124 241.14201 29.003124 238.92326Q29.003124 236.42326 29.925 235.29826Q30.721874 234.31389 32.08125 234.31389Q33.096874 234.31389 33.7375 234.89201Q34.39375 235.45451 34.51875 236.45451ZM30.221874 240.15764Q30.221874 240.70451 30.440624 241.20451Q30.675 241.68889 31.08125 241.95451Q31.503124 242.22014 31.971874 242.22014Q32.628124 242.22014 33.1125 241.68889Q33.596874 241.14201 33.596874 240.22014Q33.596874 239.32951 33.1125 238.81389Q32.64375 238.29826 31.925 238.29826Q31.20625 238.29826 30.70625 238.81389Q30.221874 239.32951 30.221874 240.15764ZM36.05 238.70451Q36.05 237.17326 36.3625 236.25139Q36.675 235.31389 37.284374 234.81389Q37.909374 234.31389 38.846874 234.31389Q39.534374 234.31389 40.05 234.59514Q40.58125 234.87639 40.925 235.40764Q41.26875 235.92326 41.45625 236.67326Q41.64375 237.42326 41.64375 238.70451Q41.64375 240.22014 41.33125 241.14201Q41.034374 242.06389 40.409374 242.57951Q39.8 243.07951 38.846874 243.07951Q37.6125 243.07951 36.89375 242.18889Q36.05 241.12639 36.05 238.70451ZM37.128124 238.70451Q37.128124 240.81389 37.628124 241.51701Q38.128124 242.22014 38.846874 242.22014Q39.58125 242.22014 40.065624 241.51701Q40.565624 240.81389 40.565624 238.70451Q40.565624 236.57951 40.065624 235.89201Q39.58125 235.18889 38.83125 235.18889Q38.1125 235.18889 37.675 235.79826Q37.128124 236.57951 37.128124 238.70451Z" fill-rule="nonzero"/><path fill="#000000" d="M19.05 145.1934Q19.05 143.66216 19.3625 142.74028Q19.675 141.80278 20.284374 141.30278Q20.909374 140.80278 21.846874 140.80278Q22.534374 140.80278 23.05 141.08403Q23.58125 141.36528 23.925 141.89653Q24.26875 142.41216 24.45625 143.16216Q24.64375 143.91216 24.64375 145.1934Q24.64375 146.70903 24.33125 147.6309Q24.034374 148.55278 23.409374 149.0684Q22.8 149.5684 21.846874 149.5684Q20.6125 149.5684 19.89375 148.67778Q19.05 147.61528 19.05 145.1934ZM20.128124 145.1934Q20.128124 147.30278 20.628124 148.0059Q21.128124 148.70903 21.846874 148.70903Q22.58125 148.70903 23.065624 148.0059Q23.565624 147.30278 23.565624 145.1934Q23.565624 143.0684 23.065624 142.3809Q22.58125 141.67778 21.83125 141.67778Q21.1125 141.67778 20.675 142.28716Q20.128124 143.0684 20.128124 145.1934ZM26.64375 149.42778L26.64375 148.22466L27.846874 148.22466L27.846874 149.42778L26.64375 149.42778ZM30.675 144.77153Q30.01875 144.52153 29.690624 144.08403Q29.378124 143.6309 29.378124 143.02153Q29.378124 142.08403 30.05 141.4434Q30.7375 140.80278 31.846874 140.80278Q32.971874 140.80278 33.659374 141.45903Q34.346874 142.11528 34.346874 143.05278Q34.346874 143.64653 34.034374 144.08403Q33.721874 144.52153 33.08125 144.77153Q33.878124 145.02153 34.284374 145.59966Q34.690624 146.17778 34.690624 146.97466Q34.690624 148.0684 33.909374 148.8184Q33.14375 149.5684 31.8625 149.5684Q30.596874 149.5684 29.815624 148.8184Q29.034374 148.0684 29.034374 146.9434Q29.034374 146.09966 29.45625 145.53716Q29.89375 144.97466 30.675 144.77153ZM30.45625 142.97466Q30.45625 143.58403 30.846874 143.97466Q31.253124 144.36528 31.878124 144.36528Q32.4875 144.36528 32.878124 143.99028Q33.26875 143.59966 33.26875 143.03716Q33.26875 142.45903 32.8625 142.0684Q32.45625 141.66216 31.8625 141.66216Q31.253124 141.66216 30.846874 142.05278Q30.45625 142.4434 30.45625 142.97466ZM30.128124 146.9434Q30.128124 147.39653 30.33125 147.8184Q30.55 148.24028 30.971874 148.47466Q31.39375 148.70903 31.878124 148.70903Q32.628124 148.70903 33.1125 148.22466Q33.6125 147.74028 33.6125 146.99028Q33.6125 146.22466 33.1125 145.72466Q32.6125 145.22466 31.846874 145.22466Q31.096874 145.22466 30.6125 145.72466Q30.128124 146.20903 30.128124 146.9434ZM36.05 145.1934Q36.05 143.66216 36.3625 142.74028Q36.675 141.80278 37.284374 141.30278Q37.909374 140.80278 38.846874 140.80278Q39.534374 140.80278 40.05 141.08403Q40.58125 141.36528 40.925 141.89653Q41.26875 142.41216 41.45625 143.16216Q41.64375 143.91216 41.64375 145.1934Q41.64375 146.70903 41.33125 147.6309Q41.034374 148.55278 40.409374 149.0684Q39.8 149.5684 38.846874 149.5684Q37.6125 149.5684 36.89375 148.67778Q36.05 147.61528 36.05 145.1934ZM37.128124 145.1934Q37.128124 147.30278 37.628124 148.0059Q38.128124 148.70903 38.846874 148.70903Q39.58125 148.70903 40.065624 148.0059Q40.565624 147.30278 40.565624 145.1934Q40.565624 143.0684 40.065624 142.3809Q39.58125 141.67778 38.83125 141.67778Q38.1125 141.67778 37.675 142.28716Q37.128124 143.0684 37.128124 145.1934Z" fill-rule="nonzero"/><path fill="#000000" d="M23.01875 55.916668L21.971874 55.916668L21.971874 49.197918Q21.58125 49.557293 20.95625 49.932293Q20.346874 50.291668 19.8625 50.463543L19.8625 49.447918Q20.7375 49.026043 21.39375 48.447918Q22.065624 47.854168 22.346874 47.291668L23.01875 47.291668L23.01875 55.916668ZM26.64375 55.916668L26.64375 54.713543L27.846874 54.713543L27.846874 55.916668L26.64375 55.916668ZM29.05 51.682293Q29.05 50.151043 29.3625 49.229168Q29.675 48.291668 30.284374 47.791668Q30.909374 47.291668 31.846874 47.291668Q32.534374 47.291668 33.05 47.572918Q33.58125 47.854168 33.925 48.385418Q34.26875 48.901043 34.45625 49.651043Q34.64375 50.401043 34.64375 51.682293Q34.64375 53.197918 34.33125 54.119793Q34.034374 55.041668 33.409374 55.557293Q32.8 56.057293 31.846874 56.057293Q30.6125 56.057293 29.89375 55.166668Q29.05 54.104168 29.05 51.682293ZM30.128124 51.682293Q30.128124 53.791668 30.628124 54.494793Q31.128124 55.197918 31.846874 55.197918Q32.58125 55.197918 33.065624 54.494793Q33.565624 53.791668 33.565624 51.682293Q33.565624 49.557293 33.065624 48.869793Q32.58125 48.166668 31.83125 48.166668Q31.1125 48.166668 30.675 48.776043Q30.128124 49.557293 30.128124 51.682293ZM36.05 51.682293Q36.05 50.151043 36.3625 49.229168Q36.675 48.291668 37.284374 47.791668Q37.909374 47.291668 38.846874 47.291668Q39.534374 47.291668 40.05 47.572918Q40.58125 47.854168 40.925 48.385418Q41.26875 48.901043 41.45625 49.651043Q41.64375 50.401043 41.64375 51.682293Q41.64375 53.197918 41.33125 54.119793Q41.034374 55.041668 40.409374 55.557293Q39.8 56.057293 38.846874 56.057293Q37.6125 56.057293 36.89375 55.166668Q36.05 54.104168 36.05 51.682293ZM37.128124 51.682293Q37.128124 53.791668 37.628124 54.494793Q38.128124 55.197918 38.846874 55.197918Q39.58125 55.197918 40.065624 54.494793Q40.565624 53.791668 40.565624 51.682293Q40.565624 49.557293 40.065624 48.869793Q39.58125 48.166668 38.83125 48.166668Q38.1125 48.166668 37.675 48.776043Q37.128124 49.557293 37.128124 51.682293Z" fill-rule="nonzero"/><path fill="#000000" d="M82.53687 351.84064L82.53687 343.23126L83.49 343.23126L83.49 344.02814Q83.83375 343.5594 84.25562 343.325Q84.69312 343.09064 85.3025 343.09064Q86.09937 343.09064 86.70875 343.4969Q87.31812 343.90314 87.615 344.65314Q87.9275 345.40314 87.9275 346.29376Q87.9275 347.2469 87.58375 348.0125Q87.25562 348.77814 86.59937 349.1844Q85.94312 349.59064 85.22437 349.59064Q84.69312 349.59064 84.27125 349.3719Q83.84937 349.1375 83.58375 348.8094L83.58375 351.84064L82.53687 351.84064ZM83.49 346.3719Q83.49 347.575 83.97437 348.15314Q84.45875 348.71564 85.14625 348.71564Q85.84937 348.71564 86.34937 348.1219Q86.84937 347.52814 86.84937 346.27814Q86.84937 345.09064 86.365 344.5125Q85.88062 343.91876 85.19312 343.91876Q84.52125 343.91876 84.00562 344.54376Q83.49 345.16876 83.49 346.3719ZM89.52125 349.45L89.52125 343.23126L90.47437 343.23126L90.47437 344.16876Q90.83375 343.5125 91.13062 343.3094Q91.44312 343.09064 91.81812 343.09064Q92.34937 343.09064 92.89625 343.41876L92.53687 344.40314Q92.14625 344.16876 91.77125 344.16876Q91.41187 344.16876 91.13062 344.3875Q90.865 344.59064 90.75562 344.96564Q90.56812 345.52814 90.56812 346.1844L90.56812 349.45L89.52125 349.45ZM97.78687 347.45L98.88062 347.575Q98.63062 348.52814 97.9275 349.0594Q97.22437 349.59064 96.14625 349.59064Q94.78687 349.59064 93.97437 348.7469Q93.1775 347.90314 93.1775 346.3875Q93.1775 344.825 93.99 343.96564Q94.8025 343.09064 96.08375 343.09064Q97.33375 343.09064 98.115 343.9344Q98.91187 344.77814 98.91187 346.325Q98.91187 346.41876 98.91187 346.60626L94.27125 346.60626Q94.33375 347.6375 94.84937 348.1844Q95.365 348.71564 96.14625 348.71564Q96.72437 348.71564 97.13062 348.41876Q97.5525 348.10626 97.78687 347.45ZM94.33375 345.7469L97.8025 345.7469Q97.74 344.95 97.41187 344.5594Q96.89625 343.95 96.09937 343.95Q95.365 343.95 94.865 344.4344Q94.38062 344.91876 94.33375 345.7469ZM104.59937 347.16876L105.63062 347.3094Q105.45875 348.3719 104.75562 348.98126Q104.0525 349.59064 103.03687 349.59064Q101.75562 349.59064 100.97437 348.7625Q100.20875 347.91876 100.20875 346.35626Q100.20875 345.35626 100.53687 344.60626Q100.88062 343.84064 101.5525 343.46564Q102.24 343.09064 103.0525 343.09064Q104.0525 343.09064 104.69312 343.60626Q105.34937 344.10626 105.53687 345.0594L104.50562 345.21564Q104.365 344.59064 103.99 344.27814Q103.615 343.95 103.08375 343.95Q102.28687 343.95 101.78687 344.52814Q101.28687 345.09064 101.28687 346.325Q101.28687 347.59064 101.77125 348.15314Q102.25562 348.71564 103.02125 348.71564Q103.64625 348.71564 104.0525 348.34064Q104.47437 347.96564 104.59937 347.16876ZM106.53687 342.075L106.53687 340.85626L107.59937 340.85626L107.59937 342.075L106.53687 342.075ZM106.53687 349.45L106.53687 343.23126L107.59937 343.23126L107.59937 349.45L106.53687 349.45ZM109.115 347.59064L110.14625 347.4344Q110.24 348.0594 110.63062 348.3875Q111.03687 348.71564 111.77125 348.71564Q112.49 348.71564 112.83375 348.4344Q113.19312 348.1375 113.19312 347.73126Q113.19312 347.3719 112.88062 347.16876Q112.66187 347.02814 111.8025 346.8094Q110.64625 346.5125 110.19312 346.3094Q109.75562 346.09064 109.52125 345.71564Q109.28687 345.34064 109.28687 344.8719Q109.28687 344.46564 109.47437 344.10626Q109.66187 343.7469 109.99 343.5125Q110.24 343.34064 110.66187 343.21564Q111.08375 343.09064 111.58375 343.09064Q112.3025 343.09064 112.84937 343.3094Q113.41187 343.5125 113.6775 343.8719Q113.94312 344.23126 114.03687 344.825L113.00562 344.96564Q112.94312 344.4969 112.59937 344.23126Q112.27125 343.95 111.64625 343.95Q110.9275 343.95 110.615 344.2Q110.3025 344.4344 110.3025 344.7625Q110.3025 344.96564 110.4275 345.1219Q110.56812 345.29376 110.83375 345.40314Q110.99 345.46564 111.77125 345.66876Q112.89625 345.98126 113.33375 346.16876Q113.77125 346.35626 114.02125 346.71564Q114.27125 347.075 114.27125 347.6219Q114.27125 348.15314 113.95875 348.6219Q113.66187 349.075 113.08375 349.34064Q112.50562 349.59064 111.77125 349.59064Q110.5525 349.59064 109.91187 349.09064Q109.28687 348.575 109.115 347.59064ZM116.53687 342.075L116.53687 340.85626L117.59937 340.85626L117.59937 342.075L116.53687 342.075ZM116.53687 349.45L116.53687 343.23126L117.59937 343.23126L117.59937 349.45L116.53687 349.45ZM119.14625 346.34064Q119.14625 344.60626 120.09937 343.77814Q120.89625 343.09064 122.0525 343.09064Q123.33375 343.09064 124.14625 343.9344Q124.97437 344.7625 124.97437 346.2469Q124.97437 347.45 124.615 348.1375Q124.25562 348.825 123.5525 349.21564Q122.865 349.59064 122.0525 349.59064Q120.75562 349.59064 119.94312 348.7625Q119.14625 347.91876 119.14625 346.34064ZM120.22437 346.34064Q120.22437 347.52814 120.74 348.1219Q121.27125 348.71564 122.0525 348.71564Q122.84937 348.71564 123.365 348.1219Q123.88062 347.52814 123.88062 346.3094Q123.88062 345.15314 123.34937 344.5594Q122.83375 343.96564 122.0525 343.96564Q121.27125 343.96564 120.74 344.5594Q120.22437 345.1375 120.22437 346.34064ZM126.53687 349.45L126.53687 343.23126L127.47437 343.23126L127.47437 344.10626Q128.16187 343.09064 129.45874 343.09064Q130.02124 343.09064 130.48999 343.29376Q130.97437 343.4969 131.20874 343.825Q131.44312 344.15314 131.53687 344.59064Q131.58374 344.8875 131.58374 345.6219L131.58374 349.45L130.53687 349.45L130.53687 345.66876Q130.53687 345.0125 130.41187 344.7Q130.28687 344.3875 129.97437 344.2Q129.66187 343.9969 129.23999 343.9969Q128.56812 343.9969 128.06812 344.4344Q127.58375 344.85626 127.58375 346.04376L127.58375 349.45L126.53687 349.45Z" fill-rule="nonzero"/><path fill="#000000" d="M198.40125 349.45L198.40125 343.23126L199.35437 343.23126L199.35437 344.16876Q199.71375 343.5125 200.01062 343.3094Q200.32312 343.09064 200.69812 343.09064Q201.22937 343.09064 201.77625 343.41876L201.41687 344.40314Q201.02625 344.16876 200.65125 344.16876Q200.29187 344.16876 200.01062 344.3875Q199.745 344.59064 199.63562 344.96564Q199.44812 345.52814 199.44812 346.1844L199.44812 349.45L198.40125 349.45ZM206.66687 347.45L207.76062 347.575Q207.51062 348.52814 206.8075 349.0594Q206.10437 349.59064 205.02625 349.59064Q203.66687 349.59064 202.85437 348.7469Q202.0575 347.90314 202.0575 346.3875Q202.0575 344.825 202.87 343.96564Q203.6825 343.09064 204.96375 343.09064Q206.21375 343.09064 206.995 343.9344Q207.79187 344.77814 207.79187 346.325Q207.79187 346.41876 207.79187 346.60626L203.15125 346.60626Q203.21375 347.6375 203.72937 348.1844Q204.245 348.71564 205.02625 348.71564Q205.60437 348.71564 206.01062 348.41876Q206.4325 348.10626 206.66687 347.45ZM203.21375 345.7469L206.6825 345.7469Q206.62 344.95 206.29187 344.5594Q205.77625 343.95 204.97937 343.95Q204.245 343.95 203.745 344.4344Q203.26062 344.91876 203.21375 345.7469ZM213.47937 347.16876L214.51062 347.3094Q214.33875 348.3719 213.63562 348.98126Q212.9325 349.59064 211.91687 349.59064Q210.63562 349.59064 209.85437 348.7625Q209.08875 347.91876 209.08875 346.35626Q209.08875 345.35626 209.41687 344.60626Q209.76062 343.84064 210.4325 343.46564Q211.12 343.09064 211.9325 343.09064Q212.9325 343.09064 213.57312 343.60626Q214.22937 344.10626 214.41687 345.0594L213.38562 345.21564Q213.245 344.59064 212.87 344.27814Q212.495 343.95 211.96375 343.95Q211.16687 343.95 210.66687 344.52814Q210.16687 345.09064 210.16687 346.325Q210.16687 347.59064 210.65125 348.15314Q211.13562 348.71564 211.90125 348.71564Q212.52625 348.71564 212.9325 348.34064Q213.35437 347.96564 213.47937 347.16876ZM219.47937 348.6844Q218.88562 349.1844 218.33875 349.3875Q217.8075 349.59064 217.1825 349.59064Q216.15125 349.59064 215.60437 349.09064Q215.0575 348.59064 215.0575 347.8094Q215.0575 347.35626 215.26062 346.98126Q215.46375 346.59064 215.8075 346.3719Q216.15125 346.1375 216.57312 346.02814Q216.87 345.9344 217.51062 345.85626Q218.77625 345.71564 219.38562 345.4969Q219.38562 345.27814 219.38562 345.23126Q219.38562 344.575 219.08875 344.3094Q218.6825 343.96564 217.88562 343.96564Q217.15125 343.96564 216.79187 344.23126Q216.4325 344.48126 216.26062 345.1375L215.22937 344.9969Q215.37 344.34064 215.69812 343.9344Q216.02625 343.52814 216.63562 343.3094Q217.245 343.09064 218.04187 343.09064Q218.83875 343.09064 219.33875 343.27814Q219.83875 343.46564 220.07312 343.7469Q220.3075 344.02814 220.40125 344.46564Q220.44812 344.73126 220.44812 345.4344L220.44812 346.84064Q220.44812 348.3094 220.51062 348.7Q220.58875 349.09064 220.79187 349.45L219.6825 349.45Q219.52625 349.1219 219.47937 348.6844ZM219.38562 346.325Q218.8075 346.5594 217.66687 346.73126Q217.01062 346.825 216.745 346.95Q216.47937 347.0594 216.32312 347.27814Q216.1825 347.4969 216.1825 347.77814Q216.1825 348.2 216.495 348.48126Q216.82312 348.7625 217.4325 348.7625Q218.04187 348.7625 218.51062 348.4969Q218.995 348.23126 219.21375 347.7625Q219.38562 347.40314 219.38562 346.71564L219.38562 346.325ZM222.38562 349.45L222.38562 340.85626L223.44812 340.85626L223.44812 349.45L222.38562 349.45ZM225.38562 349.45L225.38562 340.85626L226.44812 340.85626L226.44812 349.45L225.38562 349.45Z" fill-rule="nonzero"/><path fill="#000000" d="M295.04688 349.45L295.04688 344.04376L294.10938 344.04376L294.10938 343.23126L295.04688 343.23126L295.04688 342.5594Q295.04688 341.9344 295.15625 341.6375Q295.3125 341.21564 295.6875 340.96564Q296.07812 340.71564 296.76562 340.71564Q297.21875 340.71564 297.75 340.825L297.59375 341.73126Q297.26562 341.6844 296.96875 341.6844Q296.48438 341.6844 296.28125 341.8875Q296.09375 342.09064 296.09375 342.65314L296.09375 343.23126L297.3125 343.23126L297.3125 344.04376L296.09375 344.04376L296.09375 349.45L295.04688 349.45ZM303.04688 348.4344L303.04688 349.45L297.35938 349.45Q297.35938 349.075 297.48438 348.71564Q297.70312 348.1375 298.17188 347.575Q298.65625 347.0125 299.5625 346.27814Q300.96875 345.1219 301.45312 344.45Q301.95312 343.77814 301.95312 343.1844Q301.95312 342.5594 301.5 342.1375Q301.04688 341.7 300.32812 341.7Q299.5625 341.7 299.10938 342.15314Q298.65625 342.60626 298.64062 343.41876L297.5625 343.3094Q297.67188 342.09064 298.39062 341.46564Q299.125 340.825 300.35938 340.825Q301.59375 340.825 302.3125 341.5125Q303.03125 342.2 303.03125 343.21564Q303.03125 343.73126 302.8125 344.23126Q302.60938 344.71564 302.10938 345.27814Q301.625 345.825 300.5 346.77814Q299.54688 347.575 299.26562 347.8719Q299.0 348.15314 298.82812 348.4344L303.04688 348.4344ZM303.8125 351.84064L303.8125 351.075L310.8125 351.075L310.8125 351.84064L303.8125 351.84064ZM311.375 347.59064L312.40625 347.4344Q312.5 348.0594 312.89062 348.3875Q313.29688 348.71564 314.03125 348.71564Q314.75 348.71564 315.09375 348.4344Q315.45312 348.1375 315.45312 347.73126Q315.45312 347.3719 315.14062 347.16876Q314.92188 347.02814 314.0625 346.8094Q312.90625 346.5125 312.45312 346.3094Q312.01562 346.09064 311.78125 345.71564Q311.54688 345.34064 311.54688 344.8719Q311.54688 344.46564 311.73438 344.10626Q311.92188 343.7469 312.25 343.5125Q312.5 343.34064 312.92188 343.21564Q313.34375 343.09064 313.84375 343.09064Q314.5625 343.09064 315.10938 343.3094Q315.67188 343.5125 315.9375 343.8719Q316.20312 344.23126 316.29688 344.825L315.26562 344.96564Q315.20312 344.4969 314.85938 344.23126Q314.53125 343.95 313.90625 343.95Q313.1875 343.95 312.875 344.2Q312.5625 344.4344 312.5625 344.7625Q312.5625 344.96564 312.6875 345.1219Q312.82812 345.29376 313.09375 345.40314Q313.25 345.46564 314.03125 345.66876Q315.15625 345.98126 315.59375 346.16876Q316.03125 346.35626 316.28125 346.71564Q316.53125 347.075 316.53125 347.6219Q316.53125 348.15314 316.21875 348.6219Q315.92188 349.075 315.34375 349.34064Q314.76562 349.59064 314.03125 349.59064Q312.8125 349.59064 312.17188 349.09064Q311.54688 348.575 311.375 347.59064ZM322.85938 347.16876L323.89062 347.3094Q323.71875 348.3719 323.01562 348.98126Q322.3125 349.59064 321.29688 349.59064Q320.01562 349.59064 319.23438 348.7625Q318.46875 347.91876 318.46875 346.35626Q318.46875 345.35626 318.79688 344.60626Q319.14062 343.84064 319.8125 343.46564Q320.5 343.09064 321.3125 343.09064Q322.3125 343.09064 322.95312 343.60626Q323.60938 344.10626 323.79688 345.0594L322.76562 345.21564Q322.625 344.59064 322.25 344.27814Q321.875 343.95 321.34375 343.95Q320.54688 343.95 320.04688 344.52814Q319.54688 345.09064 319.54688 346.325Q319.54688 347.59064 320.03125 348.15314Q320.51562 348.71564 321.28125 348.71564Q321.90625 348.71564 322.3125 348.34064Q322.73438 347.96564 322.85938 347.16876ZM324.40625 346.34064Q324.40625 344.60626 325.35938 343.77814Q326.15625 343.09064 327.3125 343.09064Q328.59375 343.09064 329.40625 343.9344Q330.23438 344.7625 330.23438 346.2469Q330.23438 347.45 329.875 348.1375Q329.51562 348.825 328.8125 349.21564Q328.125 349.59064 327.3125 349.59064Q326.01562 349.59064 325.20312 348.7625Q324.40625 347.91876 324.40625 346.34064ZM325.48438 346.34064Q325.48438 347.52814 326.0 348.1219Q326.53125 348.71564 327.3125 348.71564Q328.10938 348.71564 328.625 348.1219Q329.14062 347.52814 329.14062 346.3094Q329.14062 345.15314 328.60938 344.5594Q328.09375 343.96564 327.3125 343.96564Q326.53125 343.96564 326.0 344.5594Q325.48438 345.1375 325.48438 346.34064ZM331.78125 349.45L331.78125 343.23126L332.73438 343.23126L332.73438 344.16876Q333.09375 343.5125 333.39062 343.3094Q333.70312 343.09064 334.07812 343.09064Q334.60938 343.09064 335.15625 343.41876L334.79688 344.40314Q334.40625 344.16876 334.03125 344.16876Q333.67188 344.16876 333.39062 344.3875Q333.125 344.59064 333.01562 344.96564Q332.82812 345.52814 332.82812 346.1844L332.82812 349.45L331.78125 349.45ZM340.04688 347.45L341.14062 347.575Q340.89062 348.52814 340.1875 349.0594Q339.48438 349.59064 338.40625 349.59064Q337.04688 349.59064 336.23438 348.7469Q335.4375 347.90314 335.4375 346.3875Q335.4375 344.825 336.25 343.96564Q337.0625 343.09064 338.34375 343.09064Q339.59375 343.09064 340.375 343.9344Q341.17188 344.77814 341.17188 346.325Q341.17188 346.41876 341.17188 346.60626L336.53125 346.60626Q336.59375 347.6375 337.10938 348.1844Q337.625 348.71564 338.40625 348.71564Q338.98438 348.71564 339.39062 348.41876Q339.8125 348.10626 340.04688 347.45ZM336.59375 345.7469L340.0625 345.7469Q340.0 344.95 339.67188 344.5594Q339.15625 343.95 338.35938 343.95Q337.625 343.95 337.125 344.4344Q336.64062 344.91876 336.59375 345.7469Z" fill-rule="nonzero"/><path fill="#000000" d="M397.255 347.59064L398.28625 347.4344Q398.38 348.0594 398.77063 348.3875Q399.17688 348.71564 399.91125 348.71564Q400.63 348.71564 400.97375 348.4344Q401.33313 348.1375 401.33313 347.73126Q401.33313 347.3719 401.02063 347.16876Q400.80188 347.02814 399.9425 346.8094Q398.78625 346.5125 398.33313 346.3094Q397.89563 346.09064 397.66125 345.71564Q397.42688 345.34064 397.42688 344.8719Q397.42688 344.46564 397.61438 344.10626Q397.80188 343.7469 398.13 343.5125Q398.38 343.34064 398.80188 343.21564Q399.22375 343.09064 399.72375 343.09064Q400.4425 343.09064 400.98938 343.3094Q401.55188 343.5125 401.8175 343.8719Q402.08313 344.23126 402.17688 344.825L401.14563 344.96564Q401.08313 344.4969 400.73938 344.23126Q400.41125 343.95 399.78625 343.95Q399.0675 343.95 398.755 344.2Q398.4425 344.4344 398.4425 344.7625Q398.4425 344.96564 398.5675 345.1219Q398.70813 345.29376 398.97375 345.40314Q399.13 345.46564 399.91125 345.66876Q401.03625 345.98126 401.47375 346.16876Q401.91125 346.35626 402.16125 346.71564Q402.41125 347.075 402.41125 347.6219Q402.41125 348.15314 402.09875 348.6219Q401.80188 349.075 401.22375 349.34064Q400.64563 349.59064 399.91125 349.59064Q398.6925 349.59064 398.05188 349.09064Q397.42688 348.575 397.255 347.59064ZM404.67688 351.84064L404.67688 343.23126L405.63 343.23126L405.63 344.02814Q405.97375 343.5594 406.39563 343.325Q406.83313 343.09064 407.4425 343.09064Q408.23938 343.09064 408.84875 343.4969Q409.45813 343.90314 409.755 344.65314Q410.0675 345.40314 410.0675 346.29376Q410.0675 347.2469 409.72375 348.0125Q409.39563 348.77814 408.73938 349.1844Q408.08313 349.59064 407.36438 349.59064Q406.83313 349.59064 406.41125 349.3719Q405.98938 349.1375 405.72375 348.8094L405.72375 351.84064L404.67688 351.84064ZM405.63 346.3719Q405.63 347.575 406.11438 348.15314Q406.59875 348.71564 407.28625 348.71564Q407.98938 348.71564 408.48938 348.1219Q408.98938 347.52814 408.98938 346.27814Q408.98938 345.09064 408.505 344.5125Q408.02063 343.91876 407.33313 343.91876Q406.66125 343.91876 406.14563 344.54376Q405.63 345.16876 405.63 346.3719ZM415.92688 347.45L417.02063 347.575Q416.77063 348.52814 416.0675 349.0594Q415.36438 349.59064 414.28625 349.59064Q412.92688 349.59064 412.11438 348.7469Q411.3175 347.90314 411.3175 346.3875Q411.3175 344.825 412.13 343.96564Q412.9425 343.09064 414.22375 343.09064Q415.47375 343.09064 416.255 343.9344Q417.05188 344.77814 417.05188 346.325Q417.05188 346.41876 417.05188 346.60626L412.41125 346.60626Q412.47375 347.6375 412.98938 348.1844Q413.505 348.71564 414.28625 348.71564Q414.86438 348.71564 415.27063 348.41876Q415.6925 348.10626 415.92688 347.45ZM412.47375 345.7469L415.9425 345.7469Q415.88 344.95 415.55188 344.5594Q415.03625 343.95 414.23938 343.95Q413.505 343.95 413.005 344.4344Q412.52063 344.91876 412.47375 345.7469ZM422.73938 347.16876L423.77063 347.3094Q423.59875 348.3719 422.89563 348.98126Q422.1925 349.59064 421.17688 349.59064Q419.89563 349.59064 419.11438 348.7625Q418.34875 347.91876 418.34875 346.35626Q418.34875 345.35626 418.67688 344.60626Q419.02063 343.84064 419.6925 343.46564Q420.38 343.09064 421.1925 343.09064Q422.1925 343.09064 422.83313 343.60626Q423.48938 344.10626 423.67688 345.0594L422.64563 345.21564Q422.505 344.59064 422.13 344.27814Q421.755 343.95 421.22375 343.95Q420.42688 343.95 419.92688 344.52814Q419.42688 345.09064 419.42688 346.325Q419.42688 347.59064 419.91125 348.15314Q420.39563 348.71564 421.16125 348.71564Q421.78625 348.71564 422.1925 348.34064Q422.61438 347.96564 422.73938 347.16876ZM424.67688 342.075L424.67688 340.85626L425.73938 340.85626L425.73938 342.075L424.67688 342.075ZM424.67688 349.45L424.67688 343.23126L425.73938 343.23126L425.73938 349.45L424.67688 349.45ZM427.92688 349.45L427.92688 344.04376L426.98938 344.04376L426.98938 343.23126L427.92688 343.23126L427.92688 342.5594Q427.92688 341.9344 428.03625 341.6375Q428.1925 341.21564 428.5675 340.96564Q428.95813 340.71564 429.64563 340.71564Q430.09875 340.71564 430.63 340.825L430.47375 341.73126Q430.14563 341.6844 429.84875 341.6844Q429.36438 341.6844 429.16125 341.8875Q428.97375 342.09064 428.97375 342.65314L428.97375 343.23126L430.1925 343.23126L430.1925 344.04376L428.97375 344.04376L428.97375 349.45L427.92688 349.45ZM430.67688 342.075L430.67688 340.85626L431.73938 340.85626L431.73938 342.075L430.67688 342.075ZM430.67688 349.45L430.67688 343.23126L431.73938 343.23126L431.73938 349.45L430.67688 349.45ZM437.73938 347.16876L438.77063 347.3094Q438.59875 348.3719 437.89563 348.98126Q437.1925 349.59064 436.17688 349.59064Q434.89563 349.59064 434.11438 348.7625Q433.34875 347.91876 433.34875 346.35626Q433.34875 345.35626 433.67688 344.60626Q434.02063 343.84064 434.6925 343.46564Q435.38 343.09064 436.1925 343.09064Q437.1925 343.09064 437.83313 343.60626Q438.48938 344.10626 438.67688 345.0594L437.64563 345.21564Q437.505 344.59064 437.13 344.27814Q436.755 343.95 436.22375 343.95Q435.42688 343.95 434.92688 344.52814Q434.42688 345.09064 434.42688 346.325Q434.42688 347.59064 434.91125 348.15314Q435.39563 348.71564 436.16125 348.71564Q436.78625 348.71564 437.1925 348.34064Q437.61438 347.96564 437.73938 347.16876ZM439.67688 342.075L439.67688 340.85626L440.73938 340.85626L440.73938 342.075L439.67688 342.075ZM439.67688 349.45L439.67688 343.23126L440.73938 343.23126L440.73938 349.45L439.67688 349.45ZM444.97375 348.5125L445.13 349.4344Q444.67688 349.52814 444.33313 349.52814Q443.755 349.52814 443.4425 349.35626Q443.13 349.16876 442.98938 348.8719Q442.86438 348.575 442.86438 347.6219L442.86438 344.04376L442.09875 344.04376L442.09875 343.23126L442.86438 343.23126L442.86438 341.6844L443.91125 341.0594L443.91125 343.23126L444.97375 343.23126L444.97375 344.04376L443.91125 344.04376L443.91125 347.6844Q443.91125 348.1375 443.95813 348.2625Q444.02063 348.3875 444.14563 348.46564Q444.27063 348.54376 444.505 348.54376Q444.6925 348.54376 444.97375 348.5125ZM445.63 351.84064L445.505 350.85626Q445.84875 350.95 446.11438 350.95Q446.45813 350.95 446.66125 350.825Q446.88 350.71564 447.02063 350.5125Q447.11438 350.34064 447.34875 349.71564Q447.36438 349.6375 447.4425 349.46564L445.0675 343.23126L446.20813 343.23126L447.505 346.825Q447.755 347.5125 447.95813 348.27814Q448.14563 347.54376 448.39563 346.85626L449.72375 343.23126L450.77063 343.23126L448.41125 349.5594Q448.02063 350.575 447.8175 350.96564Q447.53625 351.4969 447.16125 351.73126Q446.80188 351.98126 446.30188 351.98126Q446.005 351.98126 445.63 351.84064Z" fill-rule="nonzero"/><path fill="#000000" d="M479.52563 349.45L478.54126 349.45L478.54126 340.85626L479.60376 340.85626L479.60376 343.91876Q480.27563 343.09064 481.3069 343.09064Q481.885 343.09064 482.385 343.325Q482.90063 343.54376 483.22876 343.96564Q483.5725 344.3875 483.76 344.98126Q483.9475 345.575 483.9475 346.2469Q483.9475 347.84064 483.15063 348.71564Q482.35376 349.59064 481.26 349.59064Q480.15063 349.59064 479.52563 348.66876L479.52563 349.45ZM479.51 346.29376Q479.51 347.40314 479.8225 347.90314Q480.3225 348.71564 481.16626 348.71564Q481.85376 348.71564 482.35376 348.1219Q482.8694 347.52814 482.8694 346.325Q482.8694 345.10626 482.385 344.52814Q481.90063 343.95 481.21313 343.95Q480.52563 343.95 480.01 344.5594Q479.51 345.15314 479.51 346.29376ZM489.6194 348.6844Q489.02563 349.1844 488.47876 349.3875Q487.9475 349.59064 487.3225 349.59064Q486.29126 349.59064 485.7444 349.09064Q485.1975 348.59064 485.1975 347.8094Q485.1975 347.35626 485.40063 346.98126Q485.60376 346.59064 485.9475 346.3719Q486.29126 346.1375 486.71313 346.02814Q487.01 345.9344 487.65063 345.85626Q488.91626 345.71564 489.52563 345.4969Q489.52563 345.27814 489.52563 345.23126Q489.52563 344.575 489.22876 344.3094Q488.8225 343.96564 488.02563 343.96564Q487.29126 343.96564 486.9319 344.23126Q486.5725 344.48126 486.40063 345.1375L485.3694 344.9969Q485.51 344.34064 485.83813 343.9344Q486.16626 343.52814 486.77563 343.3094Q487.385 343.09064 488.1819 343.09064Q488.97876 343.09064 489.47876 343.27814Q489.97876 343.46564 490.21313 343.7469Q490.4475 344.02814 490.54126 344.46564Q490.58813 344.73126 490.58813 345.4344L490.58813 346.84064Q490.58813 348.3094 490.65063 348.7Q490.72876 349.09064 490.9319 349.45L489.8225 349.45Q489.66626 349.1219 489.6194 348.6844ZM489.52563 346.325Q488.9475 346.5594 487.8069 346.73126Q487.15063 346.825 486.885 346.95Q486.6194 347.0594 486.46313 347.27814Q486.3225 347.4969 486.3225 347.77814Q486.3225 348.2 486.635 348.48126Q486.96313 348.7625 487.5725 348.7625Q488.1819 348.7625 488.65063 348.4969Q489.135 348.23126 489.35376 347.7625Q489.52563 347.40314 489.52563 346.71564L489.52563 346.325ZM492.52563 349.45L492.52563 340.85626L493.58813 340.85626L493.58813 349.45L492.52563 349.45ZM499.6194 348.6844Q499.02563 349.1844 498.47876 349.3875Q497.9475 349.59064 497.3225 349.59064Q496.29126 349.59064 495.7444 349.09064Q495.1975 348.59064 495.1975 347.8094Q495.1975 347.35626 495.40063 346.98126Q495.60376 346.59064 495.9475 346.3719Q496.29126 346.1375 496.71313 346.02814Q497.01 345.9344 497.65063 345.85626Q498.91626 345.71564 499.52563 345.4969Q499.52563 345.27814 499.52563 345.23126Q499.52563 344.575 499.22876 344.3094Q498.8225 343.96564 498.02563 343.96564Q497.29126 343.96564 496.9319 344.23126Q496.5725 344.48126 496.40063 345.1375L495.3694 344.9969Q495.51 344.34064 495.83813 343.9344Q496.16626 343.52814 496.77563 343.3094Q497.385 343.09064 498.1819 343.09064Q498.97876 343.09064 499.47876 343.27814Q499.97876 343.46564 500.21313 343.7469Q500.4475 344.02814 500.54126 344.46564Q500.58813 344.73126 500.58813 345.4344L500.58813 346.84064Q500.58813 348.3094 500.65063 348.7Q500.72876 349.09064 500.9319 349.45L499.8225 349.45Q499.66626 349.1219 499.6194 348.6844ZM499.52563 346.325Q498.9475 346.5594 497.8069 346.73126Q497.15063 346.825 496.885 346.95Q496.6194 347.0594 496.46313 347.27814Q496.3225 347.4969 496.3225 347.77814Q496.3225 348.2 496.635 348.48126Q496.96313 348.7625 497.5725 348.7625Q498.1819 348.7625 498.65063 348.4969Q499.135 348.23126 499.35376 347.7625Q499.52563 347.40314 499.52563 346.71564L499.52563 346.325ZM502.5569 349.45L502.5569 343.23126L503.4944 343.23126L503.4944 344.10626Q504.1819 343.09064 505.47876 343.09064Q506.04126 343.09064 506.51 343.29376Q506.9944 343.4969 507.22876 343.825Q507.46313 344.15314 507.5569 344.59064Q507.60376 344.8875 507.60376 345.6219L507.60376 349.45L506.5569 349.45L506.5569 345.66876Q506.5569 345.0125 506.4319 344.7Q506.3069 344.3875 505.9944 344.2Q505.6819 343.9969 505.26 343.9969Q504.58813 343.9969 504.08813 344.4344Q503.60376 344.85626 503.60376 346.04376L503.60376 349.45L502.5569 349.45ZM513.6194 347.16876L514.65063 347.3094Q514.47876 348.3719 513.77563 348.98126Q513.0725 349.59064 512.0569 349.59064Q510.77563 349.59064 509.9944 348.7625Q509.22876 347.91876 509.22876 346.35626Q509.22876 345.35626 509.5569 344.60626Q509.90063 343.84064 510.5725 343.46564Q511.26 343.09064 512.0725 343.09064Q513.0725 343.09064 513.71313 343.60626Q514.3694 344.10626 514.5569 345.0594L513.52563 345.21564Q513.385 344.59064 513.01 344.27814Q512.635 343.95 512.10376 343.95Q511.3069 343.95 510.8069 344.52814Q510.3069 345.09064 510.3069 346.325Q510.3069 347.59064 510.79126 348.15314Q511.27563 348.71564 512.04126 348.71564Q512.66626 348.71564 513.0725 348.34064Q513.4944 347.96564 513.6194 347.16876ZM519.8069 347.45L520.90063 347.575Q520.65063 348.52814 519.9475 349.0594Q519.2444 349.59064 518.16626 349.59064Q516.8069 349.59064 515.9944 348.7469Q515.1975 347.90314 515.1975 346.3875Q515.1975 344.825 516.01 343.96564Q516.8225 343.09064 518.10376 343.09064Q519.35376 343.09064 520.135 343.9344Q520.9319 344.77814 520.9319 346.325Q520.9319 346.41876 520.9319 346.60626L516.29126 346.60626Q516.35376 347.6375 516.8694 348.1844Q517.385 348.71564 518.16626 348.71564Q518.7444 348.71564 519.15063 348.41876Q519.5725 348.10626 519.8069 347.45ZM516.35376 345.7469L519.8225 345.7469Q519.76 344.95 519.4319 344.5594Q518.91626 343.95 518.1194 343.95Q517.385 343.95 516.885 344.4344Q516.40063 344.91876 516.35376 345.7469ZM526.58813 349.45L526.58813 348.66876Q525.9944 349.59064 524.85376 349.59064Q524.10376 349.59064 523.47876 349.1844Q522.85376 348.7625 522.51 348.02814Q522.16626 347.29376 522.16626 346.34064Q522.16626 345.41876 522.47876 344.65314Q522.79126 343.8875 523.41626 343.4969Q524.04126 343.09064 524.8069 343.09064Q525.3694 343.09064 525.8069 343.325Q526.2444 343.5594 526.52563 343.9344L526.52563 340.85626L527.5725 340.85626L527.5725 349.45L526.58813 349.45ZM523.26 346.34064Q523.26 347.54376 523.76 348.1375Q524.26 348.71564 524.9475 348.71564Q525.635 348.71564 526.1194 348.15314Q526.60376 347.59064 526.60376 346.4344Q526.60376 345.15314 526.10376 344.5594Q525.6194 343.96564 524.90063 343.96564Q524.1975 343.96564 523.72876 344.54376Q523.26 345.10626 523.26 346.34064ZM536.6194 348.6844Q536.02563 349.1844 535.47876 349.3875Q534.9475 349.59064 534.3225 349.59064Q533.29126 349.59064 532.7444 349.09064Q532.1975 348.59064 532.1975 347.8094Q532.1975 347.35626 532.40063 346.98126Q532.60376 346.59064 532.9475 346.3719Q533.29126 346.1375 533.71313 346.02814Q534.01 345.9344 534.65063 345.85626Q535.91626 345.71564 536.52563 345.4969Q536.52563 345.27814 536.52563 345.23126Q536.52563 344.575 536.22876 344.3094Q535.8225 343.96564 535.02563 343.96564Q534.29126 343.96564 533.9319 344.23126Q533.5725 344.48126 533.40063 345.1375L532.3694 344.9969Q532.51 344.34064 532.83813 343.9344Q533.16626 343.52814 533.77563 343.3094Q534.385 343.09064 535.1819 343.09064Q535.97876 343.09064 536.47876 343.27814Q536.97876 343.46564 537.21313 343.7469Q537.4475 344.02814 537.54126 344.46564Q537.58813 344.73126 537.58813 345.4344L537.58813 346.84064Q537.58813 348.3094 537.65063 348.7Q537.72876 349.09064 537.9319 349.45L536.8225 349.45Q536.66626 349.1219 536.6194 348.6844ZM536.52563 346.325Q535.9475 346.5594 534.8069 346.73126Q534.15063 346.825 533.885 346.95Q533.6194 347.0594 533.46313 347.27814Q533.3225 347.4969 533.3225 347.77814Q533.3225 348.2 533.635 348.48126Q533.96313 348.7625 534.5725 348.7625Q535.1819 348.7625 535.65063 348.4969Q536.135 348.23126 536.35376 347.7625Q536.52563 347.40314 536.52563 346.71564L536.52563 346.325ZM543.6194 347.16876L544.65063 347.3094Q544.47876 348.3719 543.77563 348.98126Q543.0725 349.59064 542.0569 349.59064Q540.77563 349.59064 539.9944 348.7625Q539.22876 347.91876 539.22876 346.35626Q539.22876 345.35626 539.5569 344.60626Q539.90063 343.84064 540.5725 343.46564Q541.26 343.09064 542.0725 343.09064Q543.0725 343.09064 543.71313 343.60626Q544.3694 344.10626 544.5569 345.0594L543.52563 345.21564Q543.385 344.59064 543.01 344.27814Q542.635 343.95 542.10376 343.95Q541.3069 343.95 540.8069 344.52814Q540.3069 345.09064 540.3069 346.325Q540.3069 347.59064 540.79126 348.15314Q541.27563 348.71564 542.04126 348.71564Q542.66626 348.71564 543.0725 348.34064Q543.4944 347.96564 543.6194 347.16876ZM549.6194 347.16876L550.65063 347.3094Q550.47876 348.3719 549.77563 348.98126Q549.0725 349.59064 548.0569 349.59064Q546.77563 349.59064 545.9944 348.7625Q545.22876 347.91876 545.22876 346.35626Q545.22876 345.35626 545.5569 344.60626Q545.90063 343.84064 546.5725 343.46564Q547.26 343.09064 548.0725 343.09064Q549.0725 343.09064 549.71313 343.60626Q550.3694 344.10626 550.5569 345.0594L549.52563 345.21564Q549.385 344.59064 549.01 344.27814Q548.635 343.95 548.10376 343.95Q547.3069 343.95 546.8069 344.52814Q546.3069 345.09064 546.3069 346.325Q546.3069 347.59064 546.79126 348.15314Q547.27563 348.71564 548.04126 348.71564Q548.66626 348.71564 549.0725 348.34064Q549.4944 347.96564 549.6194 347.16876ZM555.635 349.45L555.635 348.52814Q554.90063 349.59064 553.65063 349.59064Q553.10376 349.59064 552.6194 349.3875Q552.15063 349.16876 551.91626 348.85626Q551.6819 348.52814 551.58813 348.0594Q551.52563 347.7625 551.52563 347.075L551.52563 343.23126L552.58813 343.23126L552.58813 346.6844Q552.58813 347.4969 552.65063 347.79376Q552.7444 348.2 553.0569 348.45Q553.385 348.6844 553.8694 348.6844Q554.33813 348.6844 554.7444 348.45Q555.16626 348.2 555.33813 347.77814Q555.52563 347.35626 555.52563 346.5594L555.52563 343.23126L556.5725 343.23126L556.5725 349.45L555.635 349.45ZM558.54126 349.45L558.54126 343.23126L559.4944 343.23126L559.4944 344.16876Q559.85376 343.5125 560.15063 343.3094Q560.46313 343.09064 560.83813 343.09064Q561.3694 343.09064 561.91626 343.41876L561.5569 344.40314Q561.16626 344.16876 560.79126 344.16876Q560.4319 344.16876 560.15063 344.3875Q559.885 344.59064 559.77563 344.96564Q559.58813 345.52814 559.58813 346.1844L559.58813 349.45L558.54126 349.45ZM566.6194 348.6844Q566.02563 349.1844 565.47876 349.3875Q564.9475 349.59064 564.3225 349.59064Q563.29126 349.59064 562.7444 349.09064Q562.1975 348.59064 562.1975 347.8094Q562.1975 347.35626 562.40063 346.98126Q562.60376 346.59064 562.9475 346.3719Q563.29126 346.1375 563.71313 346.02814Q564.01 345.9344 564.65063 345.85626Q565.91626 345.71564 566.52563 345.4969Q566.52563 345.27814 566.52563 345.23126Q566.52563 344.575 566.22876 344.3094Q565.8225 343.96564 565.02563 343.96564Q564.29126 343.96564 563.9319 344.23126Q563.5725 344.48126 563.40063 345.1375L562.3694 344.9969Q562.51 344.34064 562.83813 343.9344Q563.16626 343.52814 563.77563 343.3094Q564.385 343.09064 565.1819 343.09064Q565.97876 343.09064 566.47876 343.27814Q566.97876 343.46564 567.21313 343.7469Q567.4475 344.02814 567.54126 344.46564Q567.58813 344.73126 567.58813 345.4344L567.58813 346.84064Q567.58813 348.3094 567.65063 348.7Q567.72876 349.09064 567.9319 349.45L566.8225 349.45Q566.66626 349.1219 566.6194 348.6844ZM566.52563 346.325Q565.9475 346.5594 564.8069 346.73126Q564.15063 346.825 563.885 346.95Q563.6194 347.0594 563.46313 347.27814Q563.3225 347.4969 563.3225 347.77814Q563.3225 348.2 563.635 348.48126Q563.96313 348.7625 564.5725 348.7625Q565.1819 348.7625 565.65063 348.4969Q566.135 348.23126 566.35376 347.7625Q566.52563 347.40314 566.52563 346.71564L566.52563 346.325ZM573.6194 347.16876L574.65063 347.3094Q574.47876 348.3719 573.77563 348.98126Q573.0725 349.59064 572.0569 349.59064Q570.77563 349.59064 569.9944 348.7625Q569.22876 347.91876 569.22876 346.35626Q569.22876 345.35626 569.5569 344.60626Q569.90063 343.84064 570.5725 343.46564Q571.26 343.09064 572.0725 343.09064Q573.0725 343.09064 573.71313 343.60626Q574.3694 344.10626 574.5569 345.0594L573.52563 345.21564Q573.385 344.59064 573.01 344.27814Q572.635 343.95 572.10376 343.95Q571.3069 343.95 570.8069 344.52814Q570.3069 345.09064 570.3069 346.325Q570.3069 347.59064 570.79126 348.15314Q571.27563 348.71564 572.04126 348.71564Q572.66626 348.71564 573.0725 348.34064Q573.4944 347.96564 573.6194 347.16876ZM575.51 351.84064L575.385 350.85626Q575.72876 350.95 575.9944 350.95Q576.33813 350.95 576.54126 350.825Q576.76 350.71564 576.90063 350.5125Q576.9944 350.34064 577.22876 349.71564Q577.2444 349.6375 577.3225 349.46564L574.9475 343.23126L576.08813 343.23126L577.385 346.825Q577.635 347.5125 577.83813 348.27814Q578.02563 347.54376 578.27563 346.85626L579.60376 343.23126L580.65063 343.23126L578.29126 349.5594Q577.90063 350.575 577.6975 350.96564Q577.41626 351.4969 577.04126 351.73126Q576.6819 351.98126 576.1819 351.98126Q575.885 351.98126 575.51 351.84064Z" fill-rule="nonzero"/><path stroke="#4285f4" stroke-width="4.0" stroke-linecap="butt" d="M46.0 25.55L58.0 25.55" fill-rule="nonzero"/><path fill="#1a1a1a" d="M66.921875 29.55L66.921875 20.95625L68.078125 20.95625L72.59375 27.70625L72.59375 20.95625L73.6875 20.95625L73.6875 29.55L72.515625 29.55L68.0 22.8L68.0 29.55L66.921875 29.55ZM79.859375 28.784374Q79.265625 29.284374 78.71875 29.4875Q78.1875 29.690624 77.5625 29.690624Q76.53125 29.690624 75.984375 29.190624Q75.4375 28.690624 75.4375 27.909374Q75.4375 27.45625 75.640625 27.08125Q75.84375 26.690624 76.1875 26.471874Q76.53125 26.2375 76.953125 26.128124Q77.25 26.034374 77.890625 25.95625Q79.15625 25.815624 79.765625 25.596874Q79.765625 25.378124 79.765625 25.33125Q79.765625 24.675 79.46875 24.409374Q79.0625 24.065624 78.265625 24.065624Q77.53125 24.065624 77.171875 24.33125Q76.8125 24.58125 76.640625 25.2375L75.609375 25.096874Q75.75 24.440624 76.078125 24.034374Q76.40625 23.628124 77.015625 23.409374Q77.625 23.190624 78.421875 23.190624Q79.21875 23.190624 79.71875 23.378124Q80.21875 23.565624 80.453125 23.846874Q80.6875 24.128124 80.78125 24.565624Q80.828125 24.83125 80.828125 25.534374L80.828125 26.940624Q80.828125 28.409374 80.890625 28.8Q80.96875 29.190624 81.171875 29.55L80.0625 29.55Q79.90625 29.221874 79.859375 28.784374ZM79.765625 26.425Q79.1875 26.659374 78.046875 26.83125Q77.390625 26.925 77.125 27.05Q76.859375 27.159374 76.703125 27.378124Q76.5625 27.596874 76.5625 27.878124Q76.5625 28.3 76.875 28.58125Q77.203125 28.8625 77.8125 28.8625Q78.421875 28.8625 78.890625 28.596874Q79.375 28.33125 79.59375 27.8625Q79.765625 27.503124 79.765625 26.815624L79.765625 26.425ZM82.796875 22.175L82.796875 20.95625L83.859375 20.95625L83.859375 22.175L82.796875 22.175ZM82.796875 29.55L82.796875 23.33125L83.859375 23.33125L83.859375 29.55L82.796875 29.55ZM87.515625 29.55L85.15625 23.33125L86.265625 23.33125L87.609375 27.05Q87.8125 27.659374 88.0 28.3Q88.140625 27.815624 88.390625 27.128124L89.78125 23.33125L90.859375 23.33125L88.5 29.55L87.515625 29.55ZM95.046875 27.55L96.140625 27.675Q95.890625 28.628124 95.1875 29.159374Q94.484375 29.690624 93.40625 29.690624Q92.046875 29.690624 91.234375 28.846874Q90.4375 28.003124 90.4375 26.4875Q90.4375 24.925 91.25 24.065624Q92.0625 23.190624 93.34375 23.190624Q94.59375 23.190624 95.375 24.034374Q96.171875 24.878124 96.171875 26.425Q96.171875 26.51875 96.171875 26.70625L91.53125 26.70625Q91.59375 27.7375 92.109375 28.284374Q92.625 28.815624 93.40625 28.815624Q93.984375 28.815624 94.390625 28.51875Q94.8125 28.20625 95.046875 27.55ZM91.59375 25.846874L95.0625 25.846874Q95.0 25.05 94.671875 24.659374Q94.15625 24.05 93.359375 24.05Q92.625 24.05 92.125 24.534374Q91.640625 25.01875 91.59375 25.846874ZM100.875 29.55L100.875 20.95625L104.109375 20.95625Q105.09375 20.95625 105.6875 21.221874Q106.28125 21.4875 106.609375 22.034374Q106.953125 22.565624 106.953125 23.159374Q106.953125 23.70625 106.65625 24.190624Q106.359375 24.675 105.75 24.971874Q106.53125 25.20625 106.9375 25.76875Q107.359375 26.315624 107.359375 27.065624Q107.359375 27.659374 107.109375 28.190624Q106.859375 28.70625 106.484375 28.9875Q106.109375 29.26875 105.53125 29.409374Q104.96875 29.55 104.15625 29.55L100.875 29.55ZM102.015625 24.565624L103.875 24.565624Q104.625 24.565624 104.953125 24.471874Q105.390625 24.346874 105.609375 24.05Q105.828125 23.7375 105.828125 23.284374Q105.828125 22.8625 105.625 22.534374Q105.421875 22.20625 105.03125 22.096874Q104.65625 21.971874 103.734375 21.971874L102.015625 21.971874L102.015625 24.565624ZM102.015625 28.534374L104.15625 28.534374Q104.703125 28.534374 104.921875 28.4875Q105.328125 28.425 105.578125 28.26875Q105.84375 28.096874 106.015625 27.784374Q106.1875 27.471874 106.1875 27.065624Q106.1875 26.58125 105.9375 26.221874Q105.703125 25.8625 105.265625 25.721874Q104.828125 25.58125 104.0 25.58125L102.015625 25.58125L102.015625 28.534374ZM112.859375 28.784374Q112.265625 29.284374 111.71875 29.4875Q111.1875 29.690624 110.5625 29.690624Q109.53125 29.690624 108.984375 29.190624Q108.4375 28.690624 108.4375 27.909374Q108.4375 27.45625 108.640625 27.08125Q108.84375 26.690624 109.1875 26.471874Q109.53125 26.2375 109.953125 26.128124Q110.25 26.034374 110.890625 25.95625Q112.15625 25.815624 112.765625 25.596874Q112.765625 25.378124 112.765625 25.33125Q112.765625 24.675 112.46875 24.409374Q112.0625 24.065624 111.265625 24.065624Q110.53125 24.065624 110.171875 24.33125Q109.8125 24.58125 109.640625 25.2375L108.609375 25.096874Q108.75 24.440624 109.078125 24.034374Q109.40625 23.628124 110.015625 23.409374Q110.625 23.190624 111.421875 23.190624Q112.21875 23.190624 112.71875 23.378124Q113.21875 23.565624 113.453125 23.846874Q113.6875 24.128124 113.78125 24.565624Q113.828125 24.83125 113.828125 25.534374L113.828125 26.940624Q113.828125 28.409374 113.890625 28.8Q113.96875 29.190624 114.171875 29.55L113.0625 29.55Q112.90625 29.221874 112.859375 28.784374ZM112.765625 26.425Q112.1875 26.659374 111.046875 26.83125Q110.390625 26.925 110.125 27.05Q109.859375 27.159374 109.703125 27.378124Q109.5625 27.596874 109.5625 27.878124Q109.5625 28.3 109.875 28.58125Q110.203125 28.8625 110.8125 28.8625Q111.421875 28.8625 111.890625 28.596874Q112.375 28.33125 112.59375 27.8625Q112.765625 27.503124 112.765625 26.815624L112.765625 26.425ZM115.75 31.940624L115.625 30.95625Q115.96875 31.05 116.234375 31.05Q116.578125 31.05 116.78125 30.925Q117.0 30.815624 117.140625 30.6125Q117.234375 30.440624 117.46875 29.815624Q117.484375 29.7375 117.5625 29.565624L115.1875 23.33125L116.328125 23.33125L117.625 26.925Q117.875 27.6125 118.078125 28.378124Q118.265625 27.64375 118.515625 26.95625L119.84375 23.33125L120.890625 23.33125L118.53125 29.659374Q118.140625 30.675 117.9375 31.065624Q117.65625 31.596874 117.28125 31.83125Q116.921875 32.08125 116.421875 32.08125Q116.125 32.08125 115.75 31.940624ZM125.046875 27.55L126.140625 27.675Q125.890625 28.628124 125.1875 29.159374Q124.484375 29.690624 123.40625 29.690624Q122.046875 29.690624 121.234375 28.846874Q120.4375 28.003124 120.4375 26.4875Q120.4375 24.925 121.25 24.065624Q122.0625 23.190624 123.34375 23.190624Q124.59375 23.190624 125.375 24.034374Q126.171875 24.878124 126.171875 26.425Q126.171875 26.51875 126.171875 26.70625L121.53125 26.70625Q121.59375 27.7375 122.109375 28.284374Q122.625 28.815624 123.40625 28.815624Q123.984375 28.815624 124.390625 28.51875Q124.8125 28.20625 125.046875 27.55ZM121.59375 25.846874L125.0625 25.846874Q125.0 25.05 124.671875 24.659374Q124.15625 24.05 123.359375 24.05Q122.625 24.05 122.125 24.534374Q121.640625 25.01875 121.59375 25.846874ZM127.375 27.690624L128.40625 27.534374Q128.5 28.159374 128.89062 28.4875Q129.29688 28.815624 130.03125 28.815624Q130.75 28.815624 131.09375 28.534374Q131.45312 28.2375 131.45312 27.83125Q131.45312 27.471874 131.14062 27.26875Q130.92188 27.128124 130.0625 26.909374Q128.90625 26.6125 128.45312 26.409374Q128.01562 26.190624 127.78125 25.815624Q127.546875 25.440624 127.546875 24.971874Q127.546875 24.565624 127.734375 24.20625Q127.921875 23.846874 128.25 23.6125Q128.5 23.440624 128.92188 23.315624Q129.34375 23.190624 129.84375 23.190624Q130.5625 23.190624 131.10938 23.409374Q131.67188 23.6125 131.9375 23.971874Q132.20312 24.33125 132.29688 24.925L131.26562 25.065624Q131.20312 24.596874 130.85938 24.33125Q130.53125 24.05 129.90625 24.05Q129.1875 24.05 128.875 24.3Q128.5625 24.534374 128.5625 24.8625Q128.5625 25.065624 128.6875 25.221874Q128.82812 25.39375 129.09375 25.503124Q129.25 25.565624 130.03125 25.76875Q131.15625 26.08125 131.59375 26.26875Q132.03125 26.45625 132.28125 26.815624Q132.53125 27.175 132.53125 27.721874Q132.53125 28.253124 132.21875 28.721874Q131.92188 29.175 131.34375 29.440624Q130.76562 29.690624 130.03125 29.690624Q128.8125 29.690624 128.17188 29.190624Q127.546875 28.675 127.375 27.690624Z" fill-rule="nonzero"/><path stroke="#ea4335" stroke-width="4.0" stroke-linecap="butt" d="M150.0 25.55L162.0 25.55" fill-rule="nonzero"/><path fill="#1a1a1a" d="M170.875 29.55L170.875 20.95625L172.01562 20.95625L172.01562 25.221874L176.28125 20.95625L177.82812 20.95625L174.21875 24.440624L177.98438 29.55L176.48438 29.55L173.42188 25.20625L172.01562 26.565624L172.01562 29.55L170.875 29.55ZM178.92188 29.55L178.92188 20.95625L180.07812 20.95625L184.59375 27.70625L184.59375 20.95625L185.6875 20.95625L185.6875 29.55L184.51562 29.55L180.0 22.8L180.0 29.55L178.92188 29.55ZM187.92188 29.55L187.92188 20.95625L189.07812 20.95625L193.59375 27.70625L193.59375 20.95625L194.6875 20.95625L194.6875 29.55L193.51562 29.55L189.0 22.8L189.0 29.55L187.92188 29.55ZM201.8125 32.08125Q200.9375 30.971874 200.32812 29.503124Q199.73438 28.01875 199.73438 26.440624Q199.73438 25.05 200.17188 23.76875Q200.70312 22.284374 201.8125 20.815624L202.5625 20.815624Q201.85938 22.034374 201.625 22.55Q201.26562 23.3625 201.0625 24.2375Q200.8125 25.33125 200.8125 26.440624Q200.8125 29.26875 202.5625 32.08125L201.8125 32.08125ZM203.79688 29.55L203.79688 20.95625L204.85938 20.95625L204.85938 25.8625L207.34375 23.33125L208.71875 23.33125L206.32812 25.628124L208.95312 29.55L207.65625 29.55L205.59375 26.3625L204.85938 27.08125L204.85938 29.55L203.79688 29.55ZM215.34375 24.503124L209.67188 24.503124L209.67188 23.51875L215.34375 23.51875L215.34375 24.503124ZM215.34375 27.1125L209.67188 27.1125L209.67188 26.128124L215.34375 26.128124L215.34375 27.1125ZM216.65625 27.565624L217.67188 27.471874Q217.79688 28.190624 218.15625 28.51875Q218.53125 28.83125 219.09375 28.83125Q219.57812 28.83125 219.9375 28.6125Q220.3125 28.378124 220.54688 28.01875Q220.78125 27.64375 220.9375 27.01875Q221.09375 26.378124 221.09375 25.721874Q221.09375 25.64375 221.09375 25.503124Q220.78125 26.003124 220.23438 26.33125Q219.6875 26.64375 219.04688 26.64375Q217.96875 26.64375 217.23438 25.878124Q216.5 25.096874 216.5 23.83125Q216.5 22.51875 217.26562 21.721874Q218.04688 20.925 219.20312 20.925Q220.03125 20.925 220.71875 21.378124Q221.42188 21.83125 221.78125 22.675Q222.14062 23.503124 222.14062 25.08125Q222.14062 26.721874 221.78125 27.70625Q221.4375 28.675 220.71875 29.190624Q220.01562 29.690624 219.07812 29.690624Q218.0625 29.690624 217.42188 29.14375Q216.78125 28.58125 216.65625 27.565624ZM220.96875 23.76875Q220.96875 22.8625 220.48438 22.33125Q220.01562 21.8 219.32812 21.8Q218.625 21.8 218.09375 22.378124Q217.57812 22.940624 217.57812 23.8625Q217.57812 24.675 218.07812 25.190624Q218.57812 25.70625 219.29688 25.70625Q220.03125 25.70625 220.5 25.190624Q220.96875 24.675 220.96875 23.76875ZM225.125 24.89375Q224.46875 24.64375 224.14062 24.20625Q223.82812 23.753124 223.82812 23.14375Q223.82812 22.20625 224.5 21.565624Q225.1875 20.925 226.29688 20.925Q227.42188 20.925 228.10938 21.58125Q228.79688 22.2375 228.79688 23.175Q228.79688 23.76875 228.48438 24.20625Q228.17188 24.64375 227.53125 24.89375Q228.32812 25.14375 228.73438 25.721874Q229.14062 26.3 229.14062 27.096874Q229.14062 28.190624 228.35938 28.940624Q227.59375 29.690624 226.3125 29.690624Q225.04688 29.690624 224.26562 28.940624Q223.48438 28.190624 223.48438 27.065624Q223.48438 26.221874 223.90625 25.659374Q224.34375 25.096874 225.125 24.89375ZM224.90625 23.096874Q224.90625 23.70625 225.29688 24.096874Q225.70312 24.4875 226.32812 24.4875Q226.9375 24.4875 227.32812 24.1125Q227.71875 23.721874 227.71875 23.159374Q227.71875 22.58125 227.3125 22.190624Q226.90625 21.784374 226.3125 21.784374Q225.70312 21.784374 225.29688 22.175Q224.90625 22.565624 224.90625 23.096874ZM224.57812 27.065624Q224.57812 27.51875 224.78125 27.940624Q225.0 28.3625 225.42188 28.596874Q225.84375 28.83125 226.32812 28.83125Q227.07812 28.83125 227.5625 28.346874Q228.0625 27.8625 228.0625 27.1125Q228.0625 26.346874 227.5625 25.846874Q227.0625 25.346874 226.29688 25.346874Q225.54688 25.346874 225.0625 25.846874Q224.57812 26.33125 224.57812 27.065624ZM231.48438 32.08125L230.73438 32.08125Q232.48438 29.26875 232.48438 26.440624Q232.48438 25.346874 232.23438 24.253124Q232.03125 23.378124 231.67188 22.565624Q231.4375 22.05 230.73438 20.815624L231.48438 20.815624Q232.57812 22.284374 233.10938 23.76875Q233.5625 25.05 233.5625 26.440624Q233.5625 28.01875 232.95312 29.503124Q232.34375 30.971874 231.48438 32.08125Z" fill-rule="nonzero"/><path stroke="#fbbc04" stroke-width="4.0" stroke-linecap="butt" d="M250.0 25.55L262.0 25.55" fill-rule="nonzero"/><path fill="#1a1a1a" d="M270.875 29.55L270.875 20.95625L272.01562 20.95625L272.01562 28.534374L276.25 28.534374L276.25 29.55L270.875 29.55ZM277.40625 26.440624Q277.40625 24.70625 278.35938 23.878124Q279.15625 23.190624 280.3125 23.190624Q281.59375 23.190624 282.40625 24.034374Q283.23438 24.8625 283.23438 26.346874Q283.23438 27.55 282.875 28.2375Q282.51562 28.925 281.8125 29.315624Q281.125 29.690624 280.3125 29.690624Q279.01562 29.690624 278.20312 28.8625Q277.40625 28.01875 277.40625 26.440624ZM278.48438 26.440624Q278.48438 27.628124 279.0 28.221874Q279.53125 28.815624 280.3125 28.815624Q281.10938 28.815624 281.625 28.221874Q282.14062 27.628124 282.14062 26.409374Q282.14062 25.253124 281.60938 24.659374Q281.09375 24.065624 280.3125 24.065624Q279.53125 24.065624 279.0 24.659374Q278.48438 25.2375 278.48438 26.440624ZM284.59375 30.065624L285.625 30.221874Q285.6875 30.690624 285.98438 30.909374Q286.375 31.20625 287.04688 31.20625Q287.78125 31.20625 288.17188 30.909374Q288.57812 30.6125 288.71875 30.096874Q288.8125 29.76875 288.79688 28.7375Q288.10938 29.55 287.07812 29.55Q285.79688 29.55 285.09375 28.628124Q284.39062 27.690624 284.39062 26.409374Q284.39062 25.51875 284.70312 24.76875Q285.03125 24.003124 285.64062 23.596874Q286.25 23.190624 287.07812 23.190624Q288.1875 23.190624 288.90625 24.08125L288.90625 23.33125L289.875 23.33125L289.875 28.70625Q289.875 30.159374 289.57812 30.76875Q289.28125 31.378124 288.64062 31.721874Q288.0 32.08125 287.0625 32.08125Q285.95312 32.08125 285.26562 31.58125Q284.57812 31.08125 284.59375 30.065624ZM285.46875 26.33125Q285.46875 27.55 285.95312 28.1125Q286.4375 28.675 287.17188 28.675Q287.90625 28.675 288.39062 28.1125Q288.89062 27.55 288.89062 26.3625Q288.89062 25.221874 288.375 24.64375Q287.875 24.065624 287.15625 24.065624Q286.45312 24.065624 285.95312 24.64375Q285.46875 25.20625 285.46875 26.33125ZM291.79688 22.175L291.79688 20.95625L292.85938 20.95625L292.85938 22.175L291.79688 22.175ZM291.79688 29.55L291.79688 23.33125L292.85938 23.33125L292.85938 29.55L291.79688 29.55ZM294.375 27.690624L295.40625 27.534374Q295.5 28.159374 295.89062 28.4875Q296.29688 28.815624 297.03125 28.815624Q297.75 28.815624 298.09375 28.534374Q298.45312 28.2375 298.45312 27.83125Q298.45312 27.471874 298.14062 27.26875Q297.92188 27.128124 297.0625 26.909374Q295.90625 26.6125 295.45312 26.409374Q295.01562 26.190624 294.78125 25.815624Q294.54688 25.440624 294.54688 24.971874Q294.54688 24.565624 294.73438 24.20625Q294.92188 23.846874 295.25 23.6125Q295.5 23.440624 295.92188 23.315624Q296.34375 23.190624 296.84375 23.190624Q297.5625 23.190624 298.10938 23.409374Q298.67188 23.6125 298.9375 23.971874Q299.20312 24.33125 299.29688 24.925L298.26562 25.065624Q298.20312 24.596874 297.85938 24.33125Q297.53125 24.05 296.90625 24.05Q296.1875 24.05 295.875 24.3Q295.5625 24.534374 295.5625 24.8625Q295.5625 25.065624 295.6875 25.221874Q295.82812 25.39375 296.09375 25.503124Q296.25 25.565624 297.03125 25.76875Q298.15625 26.08125 298.59375 26.26875Q299.03125 26.45625 299.28125 26.815624Q299.53125 27.175 299.53125 27.721874Q299.53125 28.253124 299.21875 28.721874Q298.92188 29.175 298.34375 29.440624Q297.76562 29.690624 297.03125 29.690624Q295.8125 29.690624 295.17188 29.190624Q294.54688 28.675 294.375 27.690624ZM304.09375 28.6125L304.25 29.534374Q303.79688 29.628124 303.45312 29.628124Q302.875 29.628124 302.5625 29.45625Q302.25 29.26875 302.10938 28.971874Q301.98438 28.675 301.98438 27.721874L301.98438 24.14375L301.21875 24.14375L301.21875 23.33125L301.98438 23.33125L301.98438 21.784374L303.03125 21.159374L303.03125 23.33125L304.09375 23.33125L304.09375 24.14375L303.03125 24.14375L303.03125 27.784374Q303.03125 28.2375 303.07812 28.3625Q303.14062 28.4875 303.26562 28.565624Q303.39062 28.64375 303.625 28.64375Q303.8125 28.64375 304.09375 28.6125ZM304.79688 22.175L304.79688 20.95625L305.85938 20.95625L305.85938 22.175L304.79688 22.175ZM304.79688 29.55L304.79688 23.33125L305.85938 23.33125L305.85938 29.55L304.79688 29.55ZM311.85938 27.26875L312.89062 27.409374Q312.71875 28.471874 312.01562 29.08125Q311.3125 29.690624 310.29688 29.690624Q309.01562 29.690624 308.23438 28.8625Q307.46875 28.01875 307.46875 26.45625Q307.46875 25.45625 307.79688 24.70625Q308.14062 23.940624 308.8125 23.565624Q309.5 23.190624 310.3125 23.190624Q311.3125 23.190624 311.95312 23.70625Q312.60938 24.20625 312.79688 25.159374L311.76562 25.315624Q311.625 24.690624 311.25 24.378124Q310.875 24.05 310.34375 24.05Q309.54688 24.05 309.04688 24.628124Q308.54688 25.190624 308.54688 26.425Q308.54688 27.690624 309.03125 28.253124Q309.51562 28.815624 310.28125 28.815624Q310.90625 28.815624 311.3125 28.440624Q311.73438 28.065624 311.85938 27.26875ZM316.9375 29.55L316.9375 20.95625L320.75 20.95625Q321.90625 20.95625 322.5 21.190624Q323.09375 21.425 323.45312 22.01875Q323.8125 22.596874 323.8125 23.3Q323.8125 24.221874 323.21875 24.846874Q322.625 25.471874 321.39062 25.64375Q321.84375 25.8625 322.07812 26.065624Q322.57812 26.51875 323.01562 27.20625L324.51562 29.55L323.07812 29.55L321.95312 27.76875Q321.45312 26.9875 321.125 26.58125Q320.8125 26.175 320.54688 26.01875Q320.29688 25.846874 320.03125 25.76875Q319.84375 25.7375 319.40625 25.7375L318.07812 25.7375L318.07812 29.55L316.9375 29.55ZM318.07812 24.753124L320.53125 24.753124Q321.29688 24.753124 321.73438 24.596874Q322.1875 24.425 322.40625 24.08125Q322.64062 23.721874 322.64062 23.3Q322.64062 22.690624 322.1875 22.3Q321.75 21.909374 320.79688 21.909374L318.07812 21.909374L318.07812 24.753124ZM330.04688 27.55L331.14062 27.675Q330.89062 28.628124 330.1875 29.159374Q329.48438 29.690624 328.40625 29.690624Q327.04688 29.690624 326.23438 28.846874Q325.4375 28.003124 325.4375 26.4875Q325.4375 24.925 326.25 24.065624Q327.0625 23.190624 328.34375 23.190624Q329.59375 23.190624 330.375 24.034374Q331.17188 24.878124 331.17188 26.425Q331.17188 26.51875 331.17188 26.70625L326.53125 26.70625Q326.59375 27.7375 327.10938 28.284374Q327.625 28.815624 328.40625 28.815624Q328.98438 28.815624 329.39062 28.51875Q329.8125 28.20625 330.04688 27.55ZM326.59375 25.846874L330.0625 25.846874Q330.0 25.05 329.67188 24.659374Q329.15625 24.05 328.35938 24.05Q327.625 24.05 327.125 24.534374Q326.64062 25.01875 326.59375 25.846874ZM332.59375 30.065624L333.625 30.221874Q333.6875 30.690624 333.98438 30.909374Q334.375 31.20625 335.04688 31.20625Q335.78125 31.20625 336.17188 30.909374Q336.57812 30.6125 336.71875 30.096874Q336.8125 29.76875 336.79688 28.7375Q336.10938 29.55 335.07812 29.55Q333.79688 29.55 333.09375 28.628124Q332.39062 27.690624 332.39062 26.409374Q332.39062 25.51875 332.70312 24.76875Q333.03125 24.003124 333.64062 23.596874Q334.25 23.190624 335.07812 23.190624Q336.1875 23.190624 336.90625 24.08125L336.90625 23.33125L337.875 23.33125L337.875 28.70625Q337.875 30.159374 337.57812 30.76875Q337.28125 31.378124 336.64062 31.721874Q336.0 32.08125 335.0625 32.08125Q333.95312 32.08125 333.26562 31.58125Q332.57812 31.08125 332.59375 30.065624ZM333.46875 26.33125Q333.46875 27.55 333.95312 28.1125Q334.4375 28.675 335.17188 28.675Q335.90625 28.675 336.39062 28.1125Q336.89062 27.55 336.89062 26.3625Q336.89062 25.221874 336.375 24.64375Q335.875 24.065624 335.15625 24.065624Q334.45312 24.065624 333.95312 24.64375Q333.46875 25.20625 333.46875 26.33125ZM339.78125 29.55L339.78125 23.33125L340.73438 23.33125L340.73438 24.26875Q341.09375 23.6125 341.39062 23.409374Q341.70312 23.190624 342.07812 23.190624Q342.60938 23.190624 343.15625 23.51875L342.79688 24.503124Q342.40625 24.26875 342.03125 24.26875Q341.67188 24.26875 341.39062 24.4875Q341.125 24.690624 341.01562 25.065624Q340.82812 25.628124 340.82812 26.284374L340.82812 29.55L339.78125 29.55ZM348.04688 27.55L349.14062 27.675Q348.89062 28.628124 348.1875 29.159374Q347.48438 29.690624 346.40625 29.690624Q345.04688 29.690624 344.23438 28.846874Q343.4375 28.003124 343.4375 26.4875Q343.4375 24.925 344.25 24.065624Q345.0625 23.190624 346.34375 23.190624Q347.59375 23.190624 348.375 24.034374Q349.17188 24.878124 349.17188 26.425Q349.17188 26.51875 349.17188 26.70625L344.53125 26.70625Q344.59375 27.7375 345.10938 28.284374Q345.625 28.815624 346.40625 28.815624Q346.98438 28.815624 347.39062 28.51875Q347.8125 28.20625 348.04688 27.55ZM344.59375 25.846874L348.0625 25.846874Q348.0 25.05 347.67188 24.659374Q347.15625 24.05 346.35938 24.05Q345.625 24.05 345.125 24.534374Q344.64062 25.01875 344.59375 25.846874ZM350.375 27.690624L351.40625 27.534374Q351.5 28.159374 351.89062 28.4875Q352.29688 28.815624 353.03125 28.815624Q353.75 28.815624 354.09375 28.534374Q354.45312 28.2375 354.45312 27.83125Q354.45312 27.471874 354.14062 27.26875Q353.92188 27.128124 353.0625 26.909374Q351.90625 26.6125 351.45312 26.409374Q351.01562 26.190624 350.78125 25.815624Q350.54688 25.440624 350.54688 24.971874Q350.54688 24.565624 350.73438 24.20625Q350.92188 23.846874 351.25 23.6125Q351.5 23.440624 351.92188 23.315624Q352.34375 23.190624 352.84375 23.190624Q353.5625 23.190624 354.10938 23.409374Q354.67188 23.6125 354.9375 23.971874Q355.20312 24.33125 355.29688 24.925L354.26562 25.065624Q354.20312 24.596874 353.85938 24.33125Q353.53125 24.05 352.90625 24.05Q352.1875 24.05 351.875 24.3Q351.5625 24.534374 351.5625 24.8625Q351.5625 25.065624 351.6875 25.221874Q351.82812 25.39375 352.09375 25.503124Q352.25 25.565624 353.03125 25.76875Q354.15625 26.08125 354.59375 26.26875Q355.03125 26.45625 355.28125 26.815624Q355.53125 27.175 355.53125 27.721874Q355.53125 28.253124 355.21875 28.721874Q354.92188 29.175 354.34375 29.440624Q353.76562 29.690624 353.03125 29.690624Q351.8125 29.690624 351.17188 29.190624Q350.54688 28.675 350.375 27.690624ZM357.375 27.690624L358.40625 27.534374Q358.5 28.159374 358.89062 28.4875Q359.29688 28.815624 360.03125 28.815624Q360.75 28.815624 361.09375 28.534374Q361.45312 28.2375 361.45312 27.83125Q361.45312 27.471874 361.14062 27.26875Q360.92188 27.128124 360.0625 26.909374Q358.90625 26.6125 358.45312 26.409374Q358.01562 26.190624 357.78125 25.815624Q357.54688 25.440624 357.54688 24.971874Q357.54688 24.565624 357.73438 24.20625Q357.92188 23.846874 358.25 23.6125Q358.5 23.440624 358.92188 23.315624Q359.34375 23.190624 359.84375 23.190624Q360.5625 23.190624 361.10938 23.409374Q361.67188 23.6125 361.9375 23.971874Q362.20312 24.33125 362.29688 24.925L361.26562 25.065624Q361.20312 24.596874 360.85938 24.33125Q360.53125 24.05 359.90625 24.05Q359.1875 24.05 358.875 24.3Q358.5625 24.534374 358.5625 24.8625Q358.5625 25.065624 358.6875 25.221874Q358.82812 25.39375 359.09375 25.503124Q359.25 25.565624 360.03125 25.76875Q361.15625 26.08125 361.59375 26.26875Q362.03125 26.45625 362.28125 26.815624Q362.53125 27.175 362.53125 27.721874Q362.53125 28.253124 362.21875 28.721874Q361.92188 29.175 361.34375 29.440624Q360.76562 29.690624 360.03125 29.690624Q358.8125 29.690624 358.17188 29.190624Q357.54688 28.675 357.375 27.690624ZM364.79688 22.175L364.79688 20.95625L365.85938 20.95625L365.85938 22.175L364.79688 22.175ZM364.79688 29.55L364.79688 23.33125L365.85938 23.33125L365.85938 29.55L364.79688 29.55ZM367.40625 26.440624Q367.40625 24.70625 368.35938 23.878124Q369.15625 23.190624 370.3125 23.190624Q371.59375 23.190624 372.40625 24.034374Q373.23438 24.8625 373.23438 26.346874Q373.23438 27.55 372.875 28.2375Q372.51562 28.925 371.8125 29.315624Q371.125 29.690624 370.3125 29.690624Q369.01562 29.690624 368.20312 28.8625Q367.40625 28.01875 367.40625 26.440624ZM368.48438 26.440624Q368.48438 27.628124 369.0 28.221874Q369.53125 28.815624 370.3125 28.815624Q371.10938 28.815624 371.625 28.221874Q372.14062 27.628124 372.14062 26.409374Q372.14062 25.253124 371.60938 24.659374Q371.09375 24.065624 370.3125 24.065624Q369.53125 24.065624 369.0 24.659374Q368.48438 25.2375 368.48438 26.440624ZM374.79688 29.55L374.79688 23.33125L375.73438 23.33125L375.73438 24.20625Q376.42188 23.190624 377.71875 23.190624Q378.28125 23.190624 378.75 23.39375Q379.23438 23.596874 379.46875 23.925Q379.70312 24.253124 379.79688 24.690624Q379.84375 24.9875 379.84375 25.721874L379.84375 29.55L378.79688 29.55L378.79688 25.76875Q378.79688 25.1125 378.67188 24.8Q378.54688 24.4875 378.23438 24.3Q377.92188 24.096874 377.5 24.096874Q376.82812 24.096874 376.32812 24.534374Q375.84375 24.95625 375.84375 26.14375L375.84375 29.55L374.79688 29.55Z" fill-rule="nonzero"/><path stroke="#34a853" stroke-width="4.0" stroke-linecap="butt" d="M397.0 25.55L409.0 25.55" fill-rule="nonzero"/><path fill="#1a1a1a" d="M417.92188 29.55L417.92188 20.95625L420.89062 20.95625Q421.89062 20.95625 422.42188 21.08125Q423.15625 21.253124 423.67188 21.690624Q424.35938 22.26875 424.6875 23.175Q425.03125 24.065624 425.03125 25.20625Q425.03125 26.190624 424.79688 26.940624Q424.57812 27.690624 424.21875 28.190624Q423.85938 28.690624 423.42188 28.971874Q423.0 29.253124 422.40625 29.409374Q421.8125 29.55 421.03125 29.55L417.92188 29.55ZM419.0625 28.534374L420.89062 28.534374Q421.75 28.534374 422.23438 28.378124Q422.71875 28.221874 423.0 27.925Q423.40625 27.534374 423.625 26.846874Q423.85938 26.159374 423.85938 25.190624Q423.85938 23.846874 423.40625 23.128124Q422.96875 22.39375 422.34375 22.14375Q421.875 21.971874 420.875 21.971874L419.0625 21.971874L419.0625 28.534374ZM431.04688 27.55L432.14062 27.675Q431.89062 28.628124 431.1875 29.159374Q430.48438 29.690624 429.40625 29.690624Q428.04688 29.690624 427.23438 28.846874Q426.4375 28.003124 426.4375 26.4875Q426.4375 24.925 427.25 24.065624Q428.0625 23.190624 429.34375 23.190624Q430.59375 23.190624 431.375 24.034374Q432.17188 24.878124 432.17188 26.425Q432.17188 26.51875 432.17188 26.70625L427.53125 26.70625Q427.59375 27.7375 428.10938 28.284374Q428.625 28.815624 429.40625 28.815624Q429.98438 28.815624 430.39062 28.51875Q430.8125 28.20625 431.04688 27.55ZM427.59375 25.846874L431.0625 25.846874Q431.0 25.05 430.67188 24.659374Q430.15625 24.05 429.35938 24.05Q428.625 24.05 428.125 24.534374Q427.64062 25.01875 427.59375 25.846874ZM437.85938 27.26875L438.89062 27.409374Q438.71875 28.471874 438.01562 29.08125Q437.3125 29.690624 436.29688 29.690624Q435.01562 29.690624 434.23438 28.8625Q433.46875 28.01875 433.46875 26.45625Q433.46875 25.45625 433.79688 24.70625Q434.14062 23.940624 434.8125 23.565624Q435.5 23.190624 436.3125 23.190624Q437.3125 23.190624 437.95312 23.70625Q438.60938 24.20625 438.79688 25.159374L437.76562 25.315624Q437.625 24.690624 437.25 24.378124Q436.875 24.05 436.34375 24.05Q435.54688 24.05 435.04688 24.628124Q434.54688 25.190624 434.54688 26.425Q434.54688 27.690624 435.03125 28.253124Q435.51562 28.815624 436.28125 28.815624Q436.90625 28.815624 437.3125 28.440624Q437.73438 28.065624 437.85938 27.26875ZM439.79688 22.175L439.79688 20.95625L440.85938 20.95625L440.85938 22.175L439.79688 22.175ZM439.79688 29.55L439.79688 23.33125L440.85938 23.33125L440.85938 29.55L439.79688 29.55ZM442.375 27.690624L443.40625 27.534374Q443.5 28.159374 443.89062 28.4875Q444.29688 28.815624 445.03125 28.815624Q445.75 28.815624 446.09375 28.534374Q446.45312 28.2375 446.45312 27.83125Q446.45312 27.471874 446.14062 27.26875Q445.92188 27.128124 445.0625 26.909374Q443.90625 26.6125 443.45312 26.409374Q443.01562 26.190624 442.78125 25.815624Q442.54688 25.440624 442.54688 24.971874Q442.54688 24.565624 442.73438 24.20625Q442.92188 23.846874 443.25 23.6125Q443.5 23.440624 443.92188 23.315624Q444.34375 23.190624 444.84375 23.190624Q445.5625 23.190624 446.10938 23.409374Q446.67188 23.6125 446.9375 23.971874Q447.20312 24.33125 447.29688 24.925L446.26562 25.065624Q446.20312 24.596874 445.85938 24.33125Q445.53125 24.05 444.90625 24.05Q444.1875 24.05 443.875 24.3Q443.5625 24.534374 443.5625 24.8625Q443.5625 25.065624 443.6875 25.221874Q443.82812 25.39375 444.09375 25.503124Q444.25 25.565624 445.03125 25.76875Q446.15625 26.08125 446.59375 26.26875Q447.03125 26.45625 447.28125 26.815624Q447.53125 27.175 447.53125 27.721874Q447.53125 28.253124 447.21875 28.721874Q446.92188 29.175 446.34375 29.440624Q445.76562 29.690624 445.03125 29.690624Q443.8125 29.690624 443.17188 29.190624Q442.54688 28.675 442.375 27.690624ZM449.79688 22.175L449.79688 20.95625L450.85938 20.95625L450.85938 22.175L449.79688 22.175ZM449.79688 29.55L449.79688 23.33125L450.85938 23.33125L450.85938 29.55L449.79688 29.55ZM452.40625 26.440624Q452.40625 24.70625 453.35938 23.878124Q454.15625 23.190624 455.3125 23.190624Q456.59375 23.190624 457.40625 24.034374Q458.23438 24.8625 458.23438 26.346874Q458.23438 27.55 457.875 28.2375Q457.51562 28.925 456.8125 29.315624Q456.125 29.690624 455.3125 29.690624Q454.01562 29.690624 453.20312 28.8625Q452.40625 28.01875 452.40625 26.440624ZM453.48438 26.440624Q453.48438 27.628124 454.0 28.221874Q454.53125 28.815624 455.3125 28.815624Q456.10938 28.815624 456.625 28.221874Q457.14062 27.628124 457.14062 26.409374Q457.14062 25.253124 456.60938 24.659374Q456.09375 24.065624 455.3125 24.065624Q454.53125 24.065624 454.0 24.659374Q453.48438 25.2375 453.48438 26.440624ZM459.79688 29.55L459.79688 23.33125L460.73438 23.33125L460.73438 24.20625Q461.42188 23.190624 462.71875 23.190624Q463.28125 23.190624 463.75 23.39375Q464.23438 23.596874 464.46875 23.925Q464.70312 24.253124 464.79688 24.690624Q464.84375 24.9875 464.84375 25.721874L464.84375 29.55L463.79688 29.55L463.79688 25.76875Q463.79688 25.1125 463.67188 24.8Q463.54688 24.4875 463.23438 24.3Q462.92188 24.096874 462.5 24.096874Q461.82812 24.096874 461.32812 24.534374Q460.84375 24.95625 460.84375 26.14375L460.84375 29.55L459.79688 29.55ZM472.10938 29.55L472.10938 21.971874L469.28125 21.971874L469.28125 20.95625L476.09375 20.95625L476.09375 21.971874L473.25 21.971874L473.25 29.55L472.10938 29.55ZM476.78125 29.55L476.78125 23.33125L477.73438 23.33125L477.73438 24.26875Q478.09375 23.6125 478.39062 23.409374Q478.70312 23.190624 479.07812 23.190624Q479.60938 23.190624 480.15625 23.51875L479.79688 24.503124Q479.40625 24.26875 479.03125 24.26875Q478.67188 24.26875 478.39062 24.4875Q478.125 24.690624 478.01562 25.065624Q477.82812 25.628124 477.82812 26.284374L477.82812 29.55L476.78125 29.55ZM485.04688 27.55L486.14062 27.675Q485.89062 28.628124 485.1875 29.159374Q484.48438 29.690624 483.40625 29.690624Q482.04688 29.690624 481.23438 28.846874Q480.4375 28.003124 480.4375 26.4875Q480.4375 24.925 481.25 24.065624Q482.0625 23.190624 483.34375 23.190624Q484.59375 23.190624 485.375 24.034374Q486.17188 24.878124 486.17188 26.425Q486.17188 26.51875 486.17188 26.70625L481.53125 26.70625Q481.59375 27.7375 482.10938 28.284374Q482.625 28.815624 483.40625 28.815624Q483.98438 28.815624 484.39062 28.51875Q484.8125 28.20625 485.04688 27.55ZM481.59375 25.846874L485.0625 25.846874Q485.0 25.05 484.67188 24.659374Q484.15625 24.05 483.35938 24.05Q482.625 24.05 482.125 24.534374Q481.64062 25.01875 481.59375 25.846874ZM492.04688 27.55L493.14062 27.675Q492.89062 28.628124 492.1875 29.159374Q491.48438 29.690624 490.40625 29.690624Q489.04688 29.690624 488.23438 28.846874Q487.4375 28.003124 487.4375 26.4875Q487.4375 24.925 488.25 24.065624Q489.0625 23.190624 490.34375 23.190624Q491.59375 23.190624 492.375 24.034374Q493.17188 24.878124 493.17188 26.425Q493.17188 26.51875 493.17188 26.70625L488.53125 26.70625Q488.59375 27.7375 489.10938 28.284374Q489.625 28.815624 490.40625 28.815624Q490.98438 28.815624 491.39062 28.51875Q491.8125 28.20625 492.04688 27.55ZM488.59375 25.846874L492.0625 25.846874Q492.0 25.05 491.67188 24.659374Q491.15625 24.05 490.35938 24.05Q489.625 24.05 489.125 24.534374Q488.64062 25.01875 488.59375 25.846874Z" fill-rule="nonzero"/><path stroke="#ff6d01" stroke-width="4.0" stroke-linecap="butt" d="M510.0 25.55L522.0 25.55" fill-rule="nonzero"/><path fill="#1a1a1a" d="M530.5469 26.784374L531.6094 26.690624Q531.6875 27.346874 531.96875 27.753124Q532.25 28.159374 532.8281 28.425Q533.4219 28.675 534.15625 28.675Q534.7969 28.675 535.2969 28.4875Q535.7969 28.284374 536.03125 27.95625Q536.28125 27.6125 536.28125 27.221874Q536.28125 26.815624 536.0469 26.51875Q535.8125 26.20625 535.28125 26.003124Q534.9219 25.8625 533.7344 25.58125Q532.5625 25.3 532.09375 25.05Q531.46875 24.721874 531.1719 24.253124Q530.875 23.76875 530.875 23.175Q530.875 22.534374 531.2344 21.971874Q531.6094 21.39375 532.3125 21.1125Q533.03125 20.815624 533.8906 20.815624Q534.84375 20.815624 535.5781 21.128124Q536.3125 21.425 536.7031 22.034374Q537.09375 22.628124 537.125 23.378124L536.03125 23.45625Q535.9375 22.64375 535.4219 22.2375Q534.9219 21.815624 533.9375 21.815624Q532.90625 21.815624 532.4375 22.190624Q531.96875 22.565624 531.96875 23.096874Q531.96875 23.565624 532.2969 23.8625Q532.625 24.159374 534.0 24.471874Q535.3906 24.784374 535.90625 25.01875Q536.65625 25.378124 537.0156 25.909374Q537.375 26.425 537.375 27.128124Q537.375 27.815624 536.9844 28.425Q536.59375 29.01875 535.8594 29.3625Q535.125 29.690624 534.2031 29.690624Q533.03125 29.690624 532.2344 29.3625Q531.4531 29.01875 531.0 28.33125Q530.5625 27.64375 530.5469 26.784374ZM541.375 29.55L538.0469 20.95625L539.28125 20.95625L541.5156 27.20625Q541.78125 27.95625 541.96875 28.6125Q542.1719 27.909374 542.4375 27.20625L544.75 20.95625L545.90625 20.95625L542.5469 29.55L541.375 29.55ZM545.8906 29.55L545.8906 20.95625L547.6094 20.95625L549.6406 27.034374Q549.9219 27.89375 550.0469 28.315624Q550.1875 27.846874 550.5 26.940624L552.5625 20.95625L554.09375 20.95625L554.09375 29.55L553.0 29.55L553.0 22.3625L550.5 29.55L549.46875 29.55L546.9844 22.2375L546.9844 29.55L545.8906 29.55Z" fill-rule="nonzero"/></svg>